<?xml version="1.0" standalone="no"?><!DOCTYPE svg PUBLIC "-//W3C//DTD SVG 1.1//EN" "http://www.w3.org/Graphics/SVG/1.1/DTD/svg11.dtd"><svg class="icon" width="200px" height="200.00px" viewBox="0 0 1024 1024" version="1.1" xmlns="http://www.w3.org/2000/svg"><path fill="#2c2c2c" d="M908.8 264.533333l-166.4-153.6c-4.266667-4.266667-8.533333-4.266667-12.8-4.266666H192c-46.933333 0-85.333333 38.4-85.333333 85.333333v640c0 46.933333 38.4 85.333333 85.333333 85.333333h640c46.933333 0 85.333333-38.4 85.333333-85.333333V281.6c0-4.266667-4.266667-12.8-8.533333-17.066667z m-631.466667 21.333334V149.333333h256v136.533334c0 21.333333-17.066667 34.133333-42.666666 34.133333h-170.666667c-25.6 0-42.666667-12.8-42.666667-34.133333zM512 746.666667H298.666667v-42.666667h213.333333v42.666667z m213.333333-170.666667H298.666667v-42.666667h426.666666v42.666667z" /></svg>