<?xml version="1.0" standalone="no"?><!DOCTYPE svg PUBLIC "-//W3C//DTD SVG 1.1//EN" "http://www.w3.org/Graphics/SVG/1.1/DTD/svg11.dtd"><svg class="icon" width="200px" height="200.00px" viewBox="0 0 1024 1024" version="1.1" xmlns="http://www.w3.org/2000/svg"><path fill="#2c2c2c" d="M512 64C264.533333 64 64 264.533333 64 512S264.533333 960 512 960 960 759.466667 960 512 759.466667 64 512 64z m179.2 465.066667l-256 149.333333c-4.266667 0-8.533333 4.266667-8.533333 4.266667s-8.533333 0-8.533334-4.266667c-8.533333-4.266667-8.533333-12.8-8.533333-17.066667v-298.666666c0-8.533333 4.266667-12.8 8.533333-17.066667 8.533333-4.266667 12.8-4.266667 21.333334 0l256 149.333333c8.533333 4.266667 8.533333 12.8 8.533333 17.066667s-4.266667 12.8-12.8 17.066667z" /></svg>