<?xml version="1.0" standalone="no"?><!DOCTYPE svg PUBLIC "-//W3C//DTD SVG 1.1//EN" "http://www.w3.org/Graphics/SVG/1.1/DTD/svg11.dtd"><svg class="icon" width="200px" height="200.00px" viewBox="0 0 1024 1024" version="1.1" xmlns="http://www.w3.org/2000/svg"><path fill="#2c2c2c" d="M545.7 511.8l278.9-278.9c9.4-9.4 9.4-24.6 0-33.9-9.4-9.4-24.6-9.4-33.9 0L511.8 477.8 232.9 198.9c-9.4-9.4-24.6-9.4-33.9 0-9.4 9.4-9.4 24.6 0 33.9l278.9 278.9-279 279c-9.4 9.4-9.4 24.6 0 33.9 4.7 4.7 10.8 7 17 7s12.3-2.3 17-7l278.9-278.9 278.9 278.9c4.7 4.7 10.8 7 17 7s12.3-2.3 17-7c9.4-9.4 9.4-24.6 0-33.9l-279-278.9z" /></svg>