<?xml version="1.0" standalone="no"?><!DOCTYPE svg PUBLIC "-//W3C//DTD SVG 1.1//EN" "http://www.w3.org/Graphics/SVG/1.1/DTD/svg11.dtd"><svg class="icon" width="200px" height="200.00px" viewBox="0 0 1024 1024" version="1.1" xmlns="http://www.w3.org/2000/svg"><path fill="#2c2c2c" d="M870.4 281.6l-213.333333-213.333333c-4.266667-4.266667-8.533333-4.266667-17.066667-4.266667H213.333333c-34.133333 0-64 29.866667-64 64v768c0 34.133333 29.866667 64 64 64h597.333334c34.133333 0 64-29.866667 64-64V298.666667c0-4.266667-4.266667-12.8-4.266667-17.066667z m-405.333333 426.666667l-29.866667 29.866666-106.666667-106.666666c-8.533333-8.533333-8.533333-21.333333 0-29.866667l106.666667-106.666667 29.866667 29.866667-89.6 89.6 89.6 93.866667z m234.666666-72.533334l-106.666666 106.666667-29.866667-29.866667 89.6-89.6-89.6-89.6 29.866667-29.866666 106.666666 106.666666c4.266667 0 4.266667 17.066667 0 25.6z m-38.4-358.4V136.533333l140.8 140.8h-140.8z" /></svg>