<?xml version="1.0" standalone="no"?><!DOCTYPE svg PUBLIC "-//W3C//DTD SVG 1.1//EN" "http://www.w3.org/Graphics/SVG/1.1/DTD/svg11.dtd"><svg class="icon" width="200px" height="200.00px" viewBox="0 0 1024 1024" version="1.1" xmlns="http://www.w3.org/2000/svg"><path fill="#2c2c2c" d="M938.666667 405.333333h-106.666667V85.333333c0-12.8-8.533333-21.333333-21.333333-21.333333H213.333333c-12.8 0-21.333333 8.533333-21.333333 21.333333v320H85.333333c-12.8 0-21.333333 8.533333-21.333333 21.333334v384c0 12.8 8.533333 21.333333 21.333333 21.333333h128V938.666667c0 12.8 8.533333 21.333333 21.333334 21.333333h554.666666c12.8 0 21.333333-8.533333 21.333334-21.333333v-106.666667h128c12.8 0 21.333333-8.533333 21.333333-21.333333v-384c0-12.8-8.533333-21.333333-21.333333-21.333334z m-21.333334 384H810.666667V682.666667c0-12.8-8.533333-21.333333-21.333334-21.333334h-554.666666c-12.8 0-21.333333 8.533333-21.333334 21.333334v106.666666H106.666667v-341.333333h810.666666v341.333333z" /></svg>