<?xml version="1.0" standalone="no"?><!DOCTYPE svg PUBLIC "-//W3C//DTD SVG 1.1//EN" "http://www.w3.org/Graphics/SVG/1.1/DTD/svg11.dtd"><svg class="icon" width="200px" height="200.00px" viewBox="0 0 1024 1024" version="1.1" xmlns="http://www.w3.org/2000/svg"><path fill="#2c2c2c" d="M833.9 296.3c-14.2-1-25.8 10.4-25.8 24.6v569.5c0 11-11 20.2-24 20.2H240c-13 0-24-9.3-24-20.2V320.9c0-14.2-11.6-25.6-25.8-24.6-12.4 0.9-22.2 11.3-22.2 23.9v570.1c0 37.6 32.3 68.2 72 68.2h544.1c39.7 0 72-30.6 72-68.2V320.2c0.1-12.6-9.7-23-22.2-23.9zM948.8 183H729.1c-0.1 0-0.1 0-0.1-0.1v-68.8c0-26.6-21.5-48.1-48.1-48.1H344.2c-26.6 0-48.1 21.5-48.1 48.1v68.8c0 0.1 0 0.1-0.1 0.1H75.6c-6.3 0-11.4 5.1-11.4 11.4v25.2c0 6.3 5.1 11.4 11.4 11.4h873.1c6.3 0 11.4-5.1 11.4-11.4v-25.2c0.1-6.3-5-11.4-11.3-11.4zM344 114.1l0.1-0.1h336.7l0.1 0.1v68.8c0 0.1 0 0.1-0.1 0.1H344.2c-0.1 0-0.1 0-0.1-0.1l-0.1-68.8zM408.1 767.8V320.7c0-14.2-11.6-25.6-25.8-24.6-12.4 0.9-22.2 11.3-22.2 23.9v447.1c0 14.2 11.6 25.6 25.8 24.6 12.4-0.9 22.2-11.2 22.2-23.9zM664.1 767.8V320.7c0-14.2-11.6-25.6-25.8-24.6-12.4 0.9-22.2 11.3-22.2 23.9v447.1c0 14.2 11.6 25.6 25.8 24.6 12.4-0.9 22.2-11.2 22.2-23.9z" /></svg>