<?xml version="1.0" standalone="no"?><!DOCTYPE svg PUBLIC "-//W3C//DTD SVG 1.1//EN" "http://www.w3.org/Graphics/SVG/1.1/DTD/svg11.dtd"><svg class="icon" width="200px" height="200.00px" viewBox="0 0 1024 1024" version="1.1" xmlns="http://www.w3.org/2000/svg"><path fill="#2c2c2c" d="M825 65H199.2c-40.6 0-73.7 33.1-73.7 73.7v746.1c0 40.6 33.1 73.7 73.7 73.7h373.3c13.3 0 24-10.7 24-24s-10.7-24-24-24H199.2c-14.2 0-25.7-11.5-25.7-25.7V138.7c0-14.2 11.5-25.7 25.7-25.7H825c14.2 0 25.7 11.5 25.7 25.7v494.1c0 13.3 10.7 24 24 24s24-10.7 24-24V138.7c0-40.6-33.1-73.7-73.7-73.7zM320.1 280h384.1c13.3 0 24-10.7 24-24s-10.7-24-24-24H320.1c-13.3 0-24 10.7-24 24s10.7 24 24 24zM320.1 471.8h128.1c13.3 0 24-10.7 24-24s-10.7-24-24-24H320.1c-13.3 0-24 10.7-24 24s10.7 24 24 24zM760.6 758.7l-0.6-0.6c22.6-29.7 34.8-65.8 34.8-103.8 0-94.8-77.2-172-172-172s-172 77.2-172 172 77.2 172 172 172c37.7 0 73.6-12.1 103.2-34.4 0.2 0.2 0.4 0.5 0.6 0.7l128 128c4.7 4.7 10.8 7 17 7s12.3-2.3 17-7c9.4-9.4 9.4-24.6 0-33.9l-128-128z m-137.8 19.6c-68.4 0-124-55.6-124-124s55.6-124 124-124 124 55.6 124 124c0 33.1-12.9 64.3-36.3 87.7-23.4 23.4-54.6 36.3-87.7 36.3z" /></svg>