<?xml version="1.0" standalone="no"?><!DOCTYPE svg PUBLIC "-//W3C//DTD SVG 1.1//EN" "http://www.w3.org/Graphics/SVG/1.1/DTD/svg11.dtd"><svg class="icon" width="200px" height="200.00px" viewBox="0 0 1024 1024" version="1.1" xmlns="http://www.w3.org/2000/svg"><path fill="#2c2c2c" d="M939.3 227.3L793.2 81.2c-10.7-10.7-24.8-16.1-38.9-16.1-14.1 0-28.2 5.4-38.9 16.1L166.2 630.5C152.5 644.1 101.4 786.3 66 887.9c-12.4 35.7 15.2 70.2 49.6 70.2 5.8 0 11.8-1 17.8-3.1 101.3-35.6 243-87.1 256.7-100.7l549.2-549.2c21.5-21.5 21.5-56.3 0-77.8zM358.9 817.6c-9.1 5.1-52 25.5-241.4 92.1-0.7 0.2-1.3 0.4-1.9 0.4-1.5 0-3-1.1-3.8-2.3-1.1-1.5-1-2.7-0.5-4.2 66.1-189.8 86.5-232.9 91.6-242.1l439-439 156 156-439 439.1z m546.5-546.5l-65.6 65.6-156-156 65.6-65.6c1.7-1.7 3.6-2.1 5-2.1 1.3 0 3.3 0.4 5 2.1l146.1 146.1c1.7 1.7 2.1 3.6 2.1 5-0.2 1.3-0.5 3.2-2.2 4.9zM946.5 909.6H525.8c-7.6 0-13.7 6.1-13.7 13.7v20.6c0 7.6 6.1 13.7 13.7 13.7h420.7c7.6 0 13.7-6.1 13.7-13.7v-20.6c0-7.6-6.1-13.7-13.7-13.7z" /></svg>