<?xml version="1.0" standalone="no"?><!DOCTYPE svg PUBLIC "-//W3C//DTD SVG 1.1//EN" "http://www.w3.org/Graphics/SVG/1.1/DTD/svg11.dtd"><svg class="icon" width="200px" height="200.00px" viewBox="0 0 1024 1024" version="1.1" xmlns="http://www.w3.org/2000/svg"><path fill="#2c2c2c" d="M912.4 191.8H112.2c-26.4 0-48 21.6-48 48v543.9c0 26.4 21.6 48 48 48h800.1c26.4 0 48-21.6 48-48V239.8c0.1-26.4-21.5-48-47.9-48z m-52.5 48l-323.5 164c-15.2 7.7-33.3 7.7-48.5 0l-323.3-164h695.3z m52.4 543.9h-800l-0.1-0.1V267l353.9 179.5c14.4 7.3 30.2 10.9 46 10.9s31.6-3.6 45.9-10.9L912.4 267l-0.1 516.7z" /></svg>