<?xml version="1.0" standalone="no"?><!DOCTYPE svg PUBLIC "-//W3C//DTD SVG 1.1//EN" "http://www.w3.org/Graphics/SVG/1.1/DTD/svg11.dtd"><svg class="icon" width="200px" height="200.00px" viewBox="0 0 1024 1024" version="1.1" xmlns="http://www.w3.org/2000/svg"><path fill="#2c2c2c" d="M955.5 108.9C946.3 81.6 921.8 64 893 64H131.5c-28.8 0-53.3 17.6-62.5 44.9s-0.3 56.1 22.6 73.5l214.9 163.2v358.3c0 13.3 10.7 24 24 24s24-10.7 24-24V333.6c0-7.5-3.5-14.6-9.5-19.1L120.6 144.2c-9.5-7.2-7.1-17.1-6.1-20 1-2.9 5-12.2 17-12.2H893c11.9 0 16 9.3 17 12.2 1 2.9 3.4 12.7-6.1 20L679.7 314.3c-6 4.5-9.5 11.6-9.5 19.1v602.3c0 13.3 10.7 24 24 24s24-10.7 24-24V345.3l214.6-163c23-17.3 31.9-46.2 22.7-73.4z" /></svg>