<?xml version="1.0" standalone="no"?><!DOCTYPE svg PUBLIC "-//W3C//DTD SVG 1.1//EN" "http://www.w3.org/Graphics/SVG/1.1/DTD/svg11.dtd"><svg class="icon" width="200px" height="200.00px" viewBox="0 0 1024 1024" version="1.1" xmlns="http://www.w3.org/2000/svg"><path fill="#2c2c2c" d="M512.9 122.6L874.7 470h-46.8v442.6l-0.1 0.1H653.9v-75.5c0-45.3-36.9-82.2-82.2-82.2H454.2c-45.3 0-82.2 36.9-82.2 82.2v75.5H199.1l-0.1-0.1V470h-47.8l361.7-347.4m0-57.7c-5.8 0-11.5 2.2-16 6.5L73.3 478.3c-15 14.4-4.8 39.7 16 39.7H151v394.7c0 26.4 21.6 48 48 48h221V837.2c0-18.9 15.3-34.2 34.2-34.2h117.5c18.9 0 34.2 15.3 34.2 34.2v123.5h222c26.4 0 48-21.6 48-48V518h60.6c20.9 0 31.1-25.3 16.1-39.7L528.9 71.4c-4.4-4.3-10.2-6.5-16-6.5z" /></svg>