<?xml version="1.0" standalone="no"?><!DOCTYPE svg PUBLIC "-//W3C//DTD SVG 1.1//EN" "http://www.w3.org/Graphics/SVG/1.1/DTD/svg11.dtd"><svg class="icon" width="200px" height="200.00px" viewBox="0 0 1024 1024" version="1.1" xmlns="http://www.w3.org/2000/svg"><path fill="#2c2c2c" d="M938.666667 149.333333H85.333333c-12.8 0-21.333333 8.533333-21.333333 21.333334v640c0 12.8 8.533333 21.333333 21.333333 21.333333h311.466667l102.4 102.4c0 4.266667 8.533333 4.266667 12.8 4.266667s12.8 0 17.066667-4.266667l102.4-102.4H938.666667c12.8 0 21.333333-8.533333 21.333333-21.333333V170.666667c0-12.8-8.533333-21.333333-21.333333-21.333334z m-234.666667 298.666667h-93.866667L597.333333 682.666667h-42.666666l12.8-234.666667h-106.666667l-12.8 234.666667-42.666667-4.266667 12.8-234.666667H341.333333v-42.666666h81.066667l4.266667-85.333334 42.666666 4.266667-4.266666 85.333333h106.666666l4.266667-85.333333 42.666667 4.266667-4.266667 85.333333h89.6v38.4zM320 554.666667H682.666667v42.666666H320z" /></svg>