<?xml version="1.0" standalone="no"?><!DOCTYPE svg PUBLIC "-//W3C//DTD SVG 1.1//EN" "http://www.w3.org/Graphics/SVG/1.1/DTD/svg11.dtd"><svg class="icon" width="200px" height="200.00px" viewBox="0 0 1024 1024" version="1.1" xmlns="http://www.w3.org/2000/svg"><path fill="#2c2c2c" d="M874.666667 149.333333h-170.666667v-42.666666h-42.666667v42.666666h-298.666666v-42.666666h-42.666667v42.666666h-170.666667C115.2 149.333333 85.333333 179.2 85.333333 213.333333v661.333334c0 34.133333 29.866667 64 64 64h725.333334c34.133333 0 64-29.866667 64-64V213.333333c0-34.133333-29.866667-64-64-64z m-388.266667 657.066667c-4.266667 4.266667-12.8 4.266667-17.066667 4.266667s-12.8 0-17.066666-4.266667l-128-128 29.866666-29.866667 110.933334 110.933334 238.933333-238.933334 29.866667 29.866667-247.466667 256zM896 384H128V213.333333c0-12.8 8.533333-21.333333 21.333333-21.333333h170.666667v85.333333h42.666667v-85.333333h298.666666v85.333333h42.666667v-85.333333h170.666667c12.8 0 21.333333 8.533333 21.333333 21.333333v170.666667z" /></svg>