<?xml version="1.0" standalone="no"?><!DOCTYPE svg PUBLIC "-//W3C//DTD SVG 1.1//EN" "http://www.w3.org/Graphics/SVG/1.1/DTD/svg11.dtd"><svg class="icon" width="200px" height="200.00px" viewBox="0 0 1024 1024" version="1.1" xmlns="http://www.w3.org/2000/svg"><path fill="#2c2c2c" d="M510.9 271c-79.2 0-143.4 62.5-143.4 139.7 0 77.1 64.2 139.7 143.4 139.7s143.4-62.5 143.4-139.7c0-77.2-64.2-139.7-143.4-139.7z m0 232.6c-52.6 0-95.4-41.7-95.4-92.9s42.8-92.9 95.4-92.9 95.4 41.7 95.4 92.9-42.8 92.9-95.4 92.9zM510.9 64.5c-196.3 0-355.4 155-355.4 346.2v4.8c3.1 370.7 356.6 544.7 356.6 544.7s351.1-174.1 354.1-544.8v-4.8c0.1-191.1-159.1-346.1-355.3-346.1z m307.3 350.3v0.2c-0.6 77.1-17.8 151.1-51.2 220.1-26.9 55.8-64.5 108.6-111.5 157.1-42.5 43.7-85 75.7-113.3 94.8-11.7 7.9-22 14.4-30.3 19.3-29.7-17.6-85.9-54.7-142.4-111.9-48-48.6-86.2-101.6-113.7-157.6-34.1-69.5-51.7-144.1-52.3-221.7v-0.2-4.2c0-40.4 8.1-79.7 24.1-116.5 15.5-35.7 37.6-67.7 65.9-95.2 28.2-27.5 61.1-49.1 97.7-64.2 37.9-15.6 78.1-23.5 119.6-23.5s81.8 7.9 119.6 23.5c36.6 15.1 69.5 36.7 97.7 64.2 28.2 27.5 50.4 59.5 65.9 95.2 16 36.9 24.1 76.1 24.1 116.5 0.2 1.3 0.1 2.6 0.1 4.1z" /></svg>