<?xml version="1.0" standalone="no"?><!DOCTYPE svg PUBLIC "-//W3C//DTD SVG 1.1//EN" "http://www.w3.org/Graphics/SVG/1.1/DTD/svg11.dtd"><svg class="icon" width="200px" height="200.00px" viewBox="0 0 1024 1024" version="1.1" xmlns="http://www.w3.org/2000/svg"><path fill="#2c2c2c" d="M901.5 68.2H121.9C92.1 68.2 68 92.5 68 122.4v628.2c0 29.9 24.1 54.2 53.9 54.2h247.9l107.4 108c18.5 18.6 48.4 18.6 66.9 0l107.4-108h250c29.8 0 53.9-24.3 53.9-54.2V122.4c0-29.9-24.1-54.2-53.9-54.2zM286.8 535.5c-52.8 0-95.6-42.8-95.6-95.6s42.8-95.6 95.6-95.6 95.6 42.8 95.6 95.6-42.8 95.6-95.6 95.6z m225 0c-52.8 0-95.6-42.8-95.6-95.6s42.8-95.6 95.6-95.6 95.6 42.8 95.6 95.6-42.8 95.6-95.6 95.6z m225.7 0c-52.8 0-95.6-42.8-95.6-95.6s42.8-95.6 95.6-95.6 95.6 42.8 95.6 95.6-42.8 95.6-95.6 95.6z" /></svg>