<?xml version="1.0" standalone="no"?><!DOCTYPE svg PUBLIC "-//W3C//DTD SVG 1.1//EN" "http://www.w3.org/Graphics/SVG/1.1/DTD/svg11.dtd"><svg class="icon" width="200px" height="200.00px" viewBox="0 0 1024 1024" version="1.1" xmlns="http://www.w3.org/2000/svg"><path fill="#2c2c2c" d="M784.2 63.9H240c-26.4 0-48 21.6-48 48v799.6c0 26.4 21.6 48 48 48h544.1c26.4 0 48-21.6 48-48V111.9c0.1-26.4-21.5-48-47.9-48z m0 847.6c-0.1 0-0.1 0 0 0l-544 0.1-0.1-0.1V112.1l0.1-0.1h544l0.1 0.1-0.1 799.4zM576.1 807.7h-128c-13.3 0-24 10.7-24 24s10.7 24 24 24h128c13.3 0 24-10.7 24-24s-10.7-24-24-24z" /></svg>