<?xml version="1.0" standalone="no"?><!DOCTYPE svg PUBLIC "-//W3C//DTD SVG 1.1//EN" "http://www.w3.org/Graphics/SVG/1.1/DTD/svg11.dtd"><svg class="icon" width="200px" height="200.00px" viewBox="0 0 1024 1024" version="1.1" xmlns="http://www.w3.org/2000/svg"><path fill="#2c2c2c" d="M384 106.666667H170.666667c-34.133333 0-64 29.866667-64 64v213.333333c0 34.133333 29.866667 64 64 64h213.333333c34.133333 0 64-29.866667 64-64V170.666667c0-34.133333-29.866667-64-64-64zM384 576H170.666667c-34.133333 0-64 29.866667-64 64v213.333333c0 34.133333 29.866667 64 64 64h213.333333c34.133333 0 64-29.866667 64-64v-213.333333c0-34.133333-29.866667-64-64-64zM853.333333 106.666667h-213.333333c-34.133333 0-64 29.866667-64 64v213.333333c0 34.133333 29.866667 64 64 64h213.333333c34.133333 0 64-29.866667 64-64V170.666667c0-34.133333-29.866667-64-64-64zM853.333333 576h-213.333333c-34.133333 0-64 29.866667-64 64v213.333333c0 34.133333 29.866667 64 64 64h213.333333c34.133333 0 64-29.866667 64-64v-213.333333c0-34.133333-29.866667-64-64-64z" /></svg>