<?xml version="1.0" standalone="no"?><!DOCTYPE svg PUBLIC "-//W3C//DTD SVG 1.1//EN" "http://www.w3.org/Graphics/SVG/1.1/DTD/svg11.dtd"><svg class="icon" width="200px" height="200.00px" viewBox="0 0 1024 1024" version="1.1" xmlns="http://www.w3.org/2000/svg"><path fill="#2c2c2c" d="M554.666667 494.933333l-29.866667-29.866666 89.6-89.6 29.866667 29.866666-89.6 89.6zM494.933333 554.666667l-123.733333 123.733333-29.866667-29.866667 123.733334-123.733333 29.866666 29.866667z m93.866667-34.133334l29.866667-29.866666 51.2 51.2 170.666666-170.666667-179.2-179.2-170.666666 170.666667 38.4 38.4-29.866667 29.866666L426.666667 358.4 657.066667 128l243.2 243.2-230.4 230.4-81.066667-81.066667z m-157.866667-25.6l-29.866666 29.866667-38.4-38.4-170.666667 170.666667 179.2 179.2 170.666667-170.666667-51.2-51.2 29.866666-29.866667 81.066667 81.066667L371.2 896 128 657.066667 358.4 426.666667l72.533333 68.266666z"  /></svg>