<?xml version="1.0" standalone="no"?><!DOCTYPE svg PUBLIC "-//W3C//DTD SVG 1.1//EN" "http://www.w3.org/Graphics/SVG/1.1/DTD/svg11.dtd"><svg class="icon" width="200px" height="200.00px" viewBox="0 0 1024 1024" version="1.1" xmlns="http://www.w3.org/2000/svg"><path fill="#2c2c2c" d="M926.5 496.5c-13.3 0-24 10.7-24 24C902.5 736.4 726.9 912 511 912S119.5 736.4 119.5 520.5 295.2 129 511 129c63 0 124.1 14.9 179.3 43.4l-50 63.3c-8.6 10.9 0.5 26.8 14.2 24.8l144.1-20.4c8.1-1.2 13.9-8.5 13.2-16.7L798.5 78.6c-1.3-13.8-18.8-19-27.4-8.1l-50.4 63.7C656.6 99.3 584.9 81 511 81c-59.3 0-116.9 11.6-171.1 34.5-52.3 22.1-99.3 53.8-139.7 94.2s-72 87.3-94.2 139.7c-22.9 54.2-34.5 111.7-34.5 171.1S83.1 637.4 106 691.6c22.1 52.3 53.8 99.3 94.2 139.7s87.3 72 139.7 94.2C394.1 948.4 451.6 960 511 960c59.3 0 116.9-11.6 171.1-34.5 52.3-22.1 99.3-53.8 139.7-94.2s72-87.3 94.2-139.7c22.9-54.2 34.5-111.7 34.5-171.1 0-13.3-10.7-24-24-24z" /></svg>