<?xml version="1.0" standalone="no"?><!DOCTYPE svg PUBLIC "-//W3C//DTD SVG 1.1//EN" "http://www.w3.org/Graphics/SVG/1.1/DTD/svg11.dtd"><svg class="icon" width="200px" height="200.00px" viewBox="0 0 1024 1024" version="1.1" xmlns="http://www.w3.org/2000/svg"><path fill="#2c2c2c" d="M938.666667 213.333333H298.666667c-8.533333 0-12.8 4.266667-17.066667 8.533334l-213.333333 277.333333c-4.266667 8.533333-4.266667 17.066667 0 25.6l213.333333 277.333333c4.266667 4.266667 8.533333 8.533333 17.066667 8.533334h640c12.8 0 21.333333-8.533333 21.333333-21.333334v-554.666666c0-12.8-8.533333-21.333333-21.333333-21.333334z m-260.266667 388.266667l-29.866667 29.866667-93.866666-89.6-89.6 89.6-29.866667-29.866667 89.6-89.6-89.6-89.6 29.866667-29.866667 89.6 89.6 89.6-89.6 29.866666 29.866667-89.6 89.6 93.866667 89.6z" /></svg>