<?xml version="1.0" standalone="no"?><!DOCTYPE svg PUBLIC "-//W3C//DTD SVG 1.1//EN" "http://www.w3.org/Graphics/SVG/1.1/DTD/svg11.dtd"><svg class="icon" width="200px" height="200.00px" viewBox="0 0 1024 1024" version="1.1" xmlns="http://www.w3.org/2000/svg"><path fill="#2c2c2c" d="M938.666667 375.466667c-4.266667-8.533333-12.8-12.8-21.333334-12.8C857.6 362.666667 810.666667 315.733333 810.666667 256c0-17.066667 4.266667-34.133333 12.8-46.933333 4.266667-8.533333 4.266667-17.066667-4.266667-25.6-51.2-46.933333-115.2-85.333333-183.466667-102.4-8.533333-4.266667-21.333333 0-25.6 12.8-21.333333 34.133333-59.733333 55.466667-98.133333 55.466666S435.2 128 418.133333 89.6c-4.266667-8.533333-17.066667-12.8-25.6-8.533333-68.266667 17.066667-132.266667 55.466667-183.466666 102.4-8.533333 8.533333-12.8 17.066667-8.533334 25.6 8.533333 12.8 12.8 29.866667 12.8 46.933333 0 59.733333-46.933333 106.666667-106.666666 106.666667-12.8 0-21.333333 4.266667-21.333334 12.8-12.8 42.666667-21.333333 89.6-21.333333 136.533333 0 29.866667 4.266667 59.733333 8.533333 89.6 4.266667 12.8 12.8 17.066667 21.333334 17.066667h8.533333C166.4 618.666667 213.333333 665.6 213.333333 725.333333c0 25.6-8.533333 51.2-25.6 68.266667-8.533333 8.533333-8.533333 21.333333 0 29.866667 55.466667 55.466667 119.466667 98.133333 196.266667 119.466666 12.8 4.266667 21.333333-4.266667 25.6-12.8 12.8-42.666667 55.466667-72.533333 102.4-72.533333 46.933333 0 85.333333 29.866667 102.4 72.533333 4.266667 8.533333 12.8 12.8 21.333333 12.8h4.266667c72.533333-21.333333 140.8-64 196.266667-119.466666 8.533333-8.533333 8.533333-21.333333 0-29.866667-17.066667-21.333333-25.6-42.666667-25.6-68.266667 0-59.733333 46.933333-106.666667 106.666666-106.666666h8.533334c12.8 0 21.333333-4.266667 21.333333-17.066667 4.266667-29.866667 8.533333-59.733333 8.533333-89.6 4.266667-46.933333-4.266667-89.6-17.066666-136.533333zM512 682.666667c-93.866667 0-170.666667-76.8-170.666667-170.666667s76.8-170.666667 170.666667-170.666667 170.666667 76.8 170.666667 170.666667-76.8 170.666667-170.666667 170.666667z" /></svg>