<?xml version="1.0" standalone="no"?><!DOCTYPE svg PUBLIC "-//W3C//DTD SVG 1.1//EN" "http://www.w3.org/Graphics/SVG/1.1/DTD/svg11.dtd"><svg class="icon" width="200px" height="200.00px" viewBox="0 0 1024 1024" version="1.1" xmlns="http://www.w3.org/2000/svg"><path fill="#2c2c2c" d="M938.666667 883.2c0-8.533333 0-42.666667-21.333334-81.066667-12.8-25.6-34.133333-42.666667-59.733333-59.733333-29.866667-17.066667-68.266667-34.133333-115.2-42.666667-4.266667 0-34.133333-4.266667-59.733333-12.8-29.866667-8.533333-42.666667-12.8-46.933334-17.066666v-25.6c4.266667-55.466667 34.133333-85.333333 59.733334-110.933334 8.533333-8.533333 17.066667-17.066667 25.6-29.866666 29.866667-42.666667 34.133333-85.333333 34.133333-93.866667 0-8.533333 0-12.8-4.266667-21.333333s-8.533333-17.066667-12.8-21.333334c0-12.8 4.266667-25.6 4.266667-34.133333 0-21.333333 4.266667-55.466667-4.266667-89.6 0-4.266667 0-12.8-4.266666-21.333333-8.533333-25.6-17.066667-46.933333-34.133334-64-8.533333 0-68.266667-59.733333-230.4-72.533334H405.333333c-8.533333 0-17.066667 0-25.6 4.266667-29.866667 8.533333-34.133333 29.866667-38.4 38.4v25.6l-4.266666 4.266667c-4.266667 4.266667-46.933333 42.666667-51.2 93.866666-4.266667 34.133333-4.266667 85.333333 0 123.733334-4.266667 8.533333-12.8 17.066667-12.8 38.4 0 8.533333 4.266667 51.2 34.133333 89.6 8.533333 8.533333 12.8 17.066667 25.6 29.866666 25.6 29.866667 55.466667 59.733333 59.733333 110.933334v25.6c-8.533333 4.266667-21.333333 12.8-51.2 21.333333s-59.733333 12.8-64 12.8c-42.666667 8.533333-81.066667 21.333333-110.933333 38.4-25.6 17.066667-46.933333 38.4-59.733333 59.733333-21.333333 38.4-21.333333 72.533333-21.333334 81.066667v21.333333c0 17.066667 17.066667 34.133333 38.4 34.133334h776.533334c21.333333 0 38.4-17.066667 38.4-38.4v-17.066667z" /></svg>