<?xml version="1.0" standalone="no"?><!DOCTYPE svg PUBLIC "-//W3C//DTD SVG 1.1//EN" "http://www.w3.org/Graphics/SVG/1.1/DTD/svg11.dtd"><svg class="icon" width="200px" height="200.00px" viewBox="0 0 1024 1024" version="1.1" xmlns="http://www.w3.org/2000/svg"><path fill="#2c2c2c" d="M923 763.1c-22.4-53-54.5-100.7-95.4-141.6-40.9-40.9-88.5-73-141.6-95.4a436.11 436.11 0 0 0-85.8-26.4c81.6-34.3 139-115 139-209.1 0-125.2-101.5-226.7-226.7-226.7S285.7 165.4 285.7 290.6c0 94.1 57.4 174.9 139.1 209.1-29.3 5.8-57.9 14.7-85.6 26.4-53 22.4-100.7 54.5-141.6 95.4s-73 88.5-95.4 141.6c-23.2 54.9-35 113.3-35 173.4 0 13.3 10.7 24 24 24s24-10.7 24-24c0-219.1 178.3-397.4 397.4-397.4 219.1 0 397.4 178.3 397.4 397.4 0 13.3 10.7 24 24 24s24-10.7 24-24c0-60.1-11.8-118.5-35-173.4zM333.7 290.6c0-47.7 18.6-92.6 52.3-126.4 33.8-33.8 78.6-52.3 126.4-52.3s92.6 18.6 126.4 52.3c33.8 33.8 52.3 78.6 52.3 126.4 0 47.7-18.6 92.6-52.3 126.4-33.8 33.8-78.6 52.3-126.4 52.3S419.8 450.7 386 417c-33.7-33.8-52.3-78.7-52.3-126.4z" /></svg>