<?xml version="1.0" standalone="no"?><!DOCTYPE svg PUBLIC "-//W3C//DTD SVG 1.1//EN" "http://www.w3.org/Graphics/SVG/1.1/DTD/svg11.dtd"><svg class="icon" width="200px" height="200.00px" viewBox="0 0 1024 1024" version="1.1" xmlns="http://www.w3.org/2000/svg"><path fill="#2c2c2c" d="M388.266667 128l-170.666667-21.333333c-4.266667 0-12.8 0-17.066667 4.266666-4.266667 4.266667-8.533333 8.533333-8.533333 12.8l-85.333333 746.666667c0 12.8 8.533333 21.333333 17.066666 25.6l179.2 21.333333h4.266667c4.266667 0 8.533333 0 12.8-4.266666 4.266667-4.266667 8.533333-8.533333 8.533333-12.8L405.333333 149.333333c0-8.533333-8.533333-21.333333-17.066666-21.333333zM896 106.666667H469.333333c-12.8 0-21.333333 8.533333-21.333333 21.333333v768c0 12.8 8.533333 21.333333 21.333333 21.333333h426.666667c12.8 0 21.333333-8.533333 21.333333-21.333333V128c0-12.8-8.533333-21.333333-21.333333-21.333333zM597.333333 384h-42.666666V320h42.666666V384z m213.333334 0h-42.666667V320h42.666667V384z" /></svg>