<?xml version="1.0" standalone="no"?><!DOCTYPE svg PUBLIC "-//W3C//DTD SVG 1.1//EN" "http://www.w3.org/Graphics/SVG/1.1/DTD/svg11.dtd"><svg class="icon" width="200px" height="200.00px" viewBox="0 0 1024 1024" version="1.1" xmlns="http://www.w3.org/2000/svg"><path fill="#2c2c2c" d="M896 64H128c-12.8 0-21.333333 8.533333-21.333333 21.333333v213.333334c0 12.8 8.533333 21.333333 21.333333 21.333333h768c12.8 0 21.333333-8.533333 21.333333-21.333333V85.333333c0-12.8-8.533333-21.333333-21.333333-21.333333zM576 213.333333h-128V170.666667h128v42.666666zM896 384H128c-12.8 0-21.333333 8.533333-21.333333 21.333333v213.333334c0 12.8 8.533333 21.333333 21.333333 21.333333h768c12.8 0 21.333333-8.533333 21.333333-21.333333v-213.333334c0-12.8-8.533333-21.333333-21.333333-21.333333z m-320 149.333333h-128v-42.666666h128v42.666666zM896 704H128c-12.8 0-21.333333 8.533333-21.333333 21.333333v213.333334c0 12.8 8.533333 21.333333 21.333333 21.333333h768c12.8 0 21.333333-8.533333 21.333333-21.333333v-213.333334c0-12.8-8.533333-21.333333-21.333333-21.333333zM576 853.333333h-128v-42.666666h128v42.666666z" /></svg>