<?xml version="1.0" standalone="no"?><!DOCTYPE svg PUBLIC "-//W3C//DTD SVG 1.1//EN" "http://www.w3.org/Graphics/SVG/1.1/DTD/svg11.dtd"><svg class="icon" width="200px" height="200.00px" viewBox="0 0 1024 1024" version="1.1" xmlns="http://www.w3.org/2000/svg"><path fill="#2c2c2c" d="M512 384m-128 0a128 128 0 1 0 256 0 128 128 0 1 0-256 0ZM512 64C264.533333 64 64 264.533333 64 512S264.533333 960 512 960 960 759.466667 960 512 759.466667 64 512 64z m0 42.666667c221.866667 0 405.333333 183.466667 405.333333 405.333333 0 98.133333-34.133333 187.733333-93.866666 260.266667-25.6-102.4-119.466667-174.933333-226.133334-174.933334h-170.666666c-106.666667 0-200.533333 72.533333-226.133334 174.933334-59.733333-68.266667-93.866667-162.133333-93.866666-260.266667 0-221.866667 183.466667-405.333333 405.333333-405.333333zM238.933333 810.666667c12.8-93.866667 93.866667-170.666667 187.733334-170.666667h170.666666c98.133333 0 179.2 72.533333 192 170.666667-72.533333 68.266667-170.666667 106.666667-277.333333 106.666666s-204.8-42.666667-273.066667-106.666666z" /></svg>