<?xml version="1.0" standalone="no"?><!DOCTYPE svg PUBLIC "-//W3C//DTD SVG 1.1//EN" "http://www.w3.org/Graphics/SVG/1.1/DTD/svg11.dtd"><svg class="icon" width="200px" height="200.00px" viewBox="0 0 1024 1024" version="1.1" xmlns="http://www.w3.org/2000/svg"><path fill="#2c2c2c" d="M512 960c-247.039484 0-448-200.960516-448-448S264.960516 64 512 64 960 264.960516 960 512 759.039484 960 512 960zM512 128c-211.744443 0-384 172.255557-384 384s172.255557 384 384 384 384-172.255557 384-384S723.744443 128 512 128z"  /><path fill="#2c2c2c" d="M290.367854 524.352748c0.032684 0.127295 0.192662 0.25631 0.25631 0.383604 1.536138 3.615858 3.648542 7.071738 6.591802 10.047682 0.032684 0.032684 0.063647 0.032684 0.096331 0.063647s0.032684 0.063647 0.063647 0.096331l158.911974 159.359226c12.480043 12.512727 32.704421 12.576374 45.248112 0.063647 12.512727-12.480043 12.54369-32.704421 0.063647-45.248112l-103.327187-103.616181 305.056632 0c17.664722 0 31.99914-14.336138 31.99914-32.00086s-14.336138-32.00086-31.99914-32.00086L396.576374 481.500874l106.112189-104.959656c12.576374-12.447359 12.672705-32.671738 0.25631-45.248112-6.240882-6.335493-14.496116-9.504099-22.751351-9.504099-8.12794 0-16.25588 3.103239-22.496761 9.247789l-160.25545 158.495686C288.00086 498.912727 285.632146 512.703561 290.367854 524.352748z"  /></svg>