<?xml version="1.0" standalone="no"?><!DOCTYPE svg PUBLIC "-//W3C//DTD SVG 1.1//EN" "http://www.w3.org/Graphics/SVG/1.1/DTD/svg11.dtd"><svg class="icon" width="200px" height="200.00px" viewBox="0 0 1024 1024" version="1.1" xmlns="http://www.w3.org/2000/svg"><path fill="#2c2c2c" d="M827.733333 196.266667c-85.333333-85.333333-196.266667-132.266667-315.733333-132.266667-119.466667 0-230.4 46.933333-315.733333 132.266667S64 392.533333 64 512c0 119.466667 46.933333 230.4 132.266667 315.733333s196.266667 132.266667 315.733333 132.266667c119.466667 0 230.4-46.933333 315.733333-132.266667s132.266667-196.266667 132.266667-315.733333c0-119.466667-46.933333-230.4-132.266667-315.733333z m-315.733333 38.4c29.866667 0 51.2 25.6 51.2 51.2S541.866667 341.333333 512 341.333333s-51.2-25.6-51.2-51.2 21.333333-55.466667 51.2-55.466666z m85.333333 512h-149.333333v-42.666667h51.2v-256h-21.333333v-42.666667h42.666666c12.8 0 21.333333 8.533333 21.333334 21.333334v277.333333H597.333333v42.666667z" /></svg>