<?xml version="1.0" standalone="no"?><!DOCTYPE svg PUBLIC "-//W3C//DTD SVG 1.1//EN" "http://www.w3.org/Graphics/SVG/1.1/DTD/svg11.dtd"><svg class="icon" width="200px" height="200.00px" viewBox="0 0 1024 1024" version="1.1" xmlns="http://www.w3.org/2000/svg"><path fill="#2c2c2c" d="M511.3 65.2C263.7 65.2 63 265.9 63 513.5s200.7 448.3 448.3 448.3 448.3-200.7 448.3-448.3S758.9 65.2 511.3 65.2z m234.3 471.3H535.7v207.3c0 13.2-10.8 24-24 24s-24-10.8-24-24V536.5H281.5c-13.2 0-24-10.8-24-24s10.8-24 24-24h206.2V280c0-13.2 10.8-24 24-24s24 10.8 24 24v208.5h209.9c13.2 0 24 10.8 24 24s-10.8 24-24 24z" /></svg>