<?xml version="1.0" standalone="no"?><!DOCTYPE svg PUBLIC "-//W3C//DTD SVG 1.1//EN" "http://www.w3.org/Graphics/SVG/1.1/DTD/svg11.dtd"><svg class="icon" width="200px" height="200.00px" viewBox="0 0 1024 1024" version="1.1" xmlns="http://www.w3.org/2000/svg"><path fill="#2c2c2c" d="M903.6 63.9H248c-30.8 0-56 25.2-56 56V296H88.2c-13.3 0-24 10.7-24 24s10.7 24 24 24H192v144.1H88.2c-13.3 0-24 10.7-24 24s10.7 24 24 24H192v143.8H88.2c-13.3 0-24 10.7-24 24s10.7 24 24 24H192v175.7c0 30.8 25.2 56 56 56h655.5c30.8 0 56-25.2 56-56V119.9c0.1-30.8-25.1-56-55.9-56z m8 839.7c0 4.3-3.7 8-8 8H248c-4.3 0-8-3.7-8-8V727.9h99.6c13.3 0 24-10.7 24-24s-10.7-24-24-24H240V536.1h99.6c13.3 0 24-10.7 24-24s-10.7-24-24-24H240V344h99.6c13.3 0 24-10.7 24-24s-10.7-24-24-24H240V119.9c0-4.3 3.7-8 8-8h655.5c4.3 0 8 3.7 8 8v783.7zM718.6 510.3c25.5-22.3 41.6-55 41.6-91.5 0-67-54.5-121.5-121.5-121.5s-121.5 54.5-121.5 121.5c0 36.7 16.4 69.7 42.2 92C483 542.4 429 617.8 429 705.6c0 13.3 10.7 24 24 24s24-10.7 24-24c0-89.7 73-162.7 162.7-162.7s162.7 73 162.7 162.7c0 13.3 10.7 24 24 24s24-10.7 24-24c-0.1-88.3-54.7-164.1-131.8-195.3z m-79.9-165c40.5 0 73.5 33 73.5 73.5s-33 73.5-73.5 73.5-73.5-33-73.5-73.5 33-73.5 73.5-73.5z" /></svg>