<?xml version="1.0" standalone="no"?><!DOCTYPE svg PUBLIC "-//W3C//DTD SVG 1.1//EN" "http://www.w3.org/Graphics/SVG/1.1/DTD/svg11.dtd"><svg class="icon" width="200px" height="200.00px" viewBox="0 0 1024 1024" version="1.1" xmlns="http://www.w3.org/2000/svg"><path fill="#2c2c2c" d="M913.066667 499.2l-345.6-345.6c-4.266667-4.266667-8.533333-4.266667-17.066667-4.266667H170.666667c-12.8 0-21.333333 8.533333-21.333334 21.333334v384c0 4.266667 4.266667 12.8 4.266667 17.066666l345.6 345.6c17.066667 17.066667 42.666667 29.866667 68.266667 29.866667s51.2-8.533333 68.266666-29.866667l277.333334-277.333333c38.4-38.4 38.4-102.4 0-140.8zM392.533333 448c-25.6 0-51.2-25.6-51.2-55.466667S366.933333 341.333333 392.533333 341.333333s51.2 25.6 51.2 51.2-21.333333 55.466667-51.2 55.466667z" /></svg>