<?xml version="1.0" standalone="no"?><!DOCTYPE svg PUBLIC "-//W3C//DTD SVG 1.1//EN" "http://www.w3.org/Graphics/SVG/1.1/DTD/svg11.dtd"><svg class="icon" width="200px" height="200.00px" viewBox="0 0 1024 1024" version="1.1" xmlns="http://www.w3.org/2000/svg"><path fill="#2c2c2c" d="M853.333333 64H256c-34.133333 0-64 29.866667-64 64v149.333333H128v42.666667h64v170.666667H128v42.666666h64v170.666667H128v42.666667h64V896c0 34.133333 29.866667 64 64 64h597.333333c34.133333 0 64-29.866667 64-64V128c0-34.133333-29.866667-64-64-64zM746.666667 896h-42.666667V128h42.666667v768zM576 64h256v42.666667h-256zM576 917.333333h256v42.666667h-256z" /></svg>