<?xml version="1.0" standalone="no"?><!DOCTYPE svg PUBLIC "-//W3C//DTD SVG 1.1//EN" "http://www.w3.org/Graphics/SVG/1.1/DTD/svg11.dtd"><svg class="icon" width="200px" height="200.00px" viewBox="0 0 1024 1024" version="1.1" xmlns="http://www.w3.org/2000/svg"><path fill="#2c2c2c" d="M422.2 574.5H239.5c-13.2 0-24 10.8-24 24s10.8 24 24 24h182.7c13.2 0 24-10.8 24-24s-10.8-24-24-24zM422.2 705H239.5c-13.2 0-24 10.8-24 24s10.8 24 24 24h182.7c13.2 0 24-10.8 24-24s-10.8-24-24-24zM784.2 574.5H601.4c-13.2 0-24 10.8-24 24s10.8 24 24 24h182.7c13.2 0 24-10.8 24-24 0.1-13.2-10.7-24-23.9-24zM920.2 157.5H766.4V91c0-13.2-10.8-24-24-24s-24 10.8-24 24v66.5H305V91c0-13.2-10.8-24-24-24s-24 10.8-24 24v66.5H107.5c-22.1 0-40 17.9-40 40v722.7c0 22.1 17.9 40 40 40h812.7c22.1 0 40-17.9 40-40V197.5c0-22.1-17.9-40-40-40z m-663.2 48v64c0 13.2 10.8 24 24 24s24-10.8 24-24v-64h413.5v64c0 13.2 10.8 24 24 24s24-10.8 24-24v-64h145.7V372H115.5V205.5H257zM115.5 912.2V420h796.7v492.2H115.5z" /></svg>