<?xml version="1.0" standalone="no"?><!DOCTYPE svg PUBLIC "-//W3C//DTD SVG 1.1//EN" "http://www.w3.org/Graphics/SVG/1.1/DTD/svg11.dtd"><svg class="icon" width="200px" height="200.00px" viewBox="0 0 1024 1024" version="1.1" xmlns="http://www.w3.org/2000/svg"><path fill="#2c2c2c" d="M700.4 322.7c-9.4-9.4-24.6-9.4-33.9 0l-155 155-155-155c-9.4-9.4-24.6-9.4-33.9 0-9.4 9.4-9.4 24.6 0 33.9l155 155-155 155c-9.4 9.4-9.4 24.6 0 33.9 9.4 9.4 24.6 9.4 33.9 0l155-155 155 155c9.4 9.4 24.6 9.4 33.9 0 9.4-9.4 9.4-24.6 0-33.9l-155-155 155-155c9.4-9.3 9.4-24.5 0-33.9zM511.5 63.9c-247.3 0-447.7 200.4-447.7 447.7s200.4 447.7 447.7 447.7 447.7-200.4 447.7-447.7S758.8 63.9 511.5 63.9z m282.6 730.3c-36.7 36.7-79.5 65.5-127.1 85.7-49.2 20.8-101.6 31.4-155.6 31.4s-106.3-10.6-155.6-31.4c-47.6-20.1-90.3-49-127.1-85.7-36.7-36.7-65.5-79.5-85.7-127.1-20.8-49.2-31.4-101.6-31.4-155.6s10.6-106.3 31.4-155.6c20.1-47.6 49-90.3 85.7-127.1 36.7-36.7 79.5-65.5 127.1-85.7 49.2-20.8 101.6-31.4 155.6-31.4s106.3 10.6 155.6 31.4c47.6 20.1 90.3 49 127.1 85.7 36.7 36.7 65.5 79.5 85.7 127.1 20.8 49.2 31.4 101.6 31.4 155.6s-10.6 106.3-31.4 155.6c-20.1 47.7-48.9 90.4-85.7 127.1z" /></svg>