<?xml version="1.0" standalone="no"?><!DOCTYPE svg PUBLIC "-//W3C//DTD SVG 1.1//EN" "http://www.w3.org/Graphics/SVG/1.1/DTD/svg11.dtd"><svg class="icon" width="200px" height="200.00px" viewBox="0 0 1024 1024" version="1.1" xmlns="http://www.w3.org/2000/svg"><path fill="#2c2c2c" d="M511.5 63.9c-247.3 0-447.7 200.4-447.7 447.7s200.4 447.7 447.7 447.7 447.7-200.4 447.7-447.7S758.8 63.9 511.5 63.9z m188.9 602.7c9.4 9.4 9.4 24.6 0 33.9-9.4 9.4-24.6 9.4-33.9 0l-155-155-155 155c-9.4 9.4-24.6 9.4-33.9 0-9.4-9.4-9.4-24.6 0-33.9l155-155-155-155c-9.4-9.4-9.4-24.6 0-33.9 9.4-9.4 24.6-9.4 33.9 0l155 155 155-155c9.4-9.4 24.6-9.4 33.9 0 9.4 9.4 9.4 24.6 0 33.9l-155 155 155 155z" /></svg>