<?xml version="1.0" standalone="no"?><!DOCTYPE svg PUBLIC "-//W3C//DTD SVG 1.1//EN" "http://www.w3.org/Graphics/SVG/1.1/DTD/svg11.dtd"><svg class="icon" width="200px" height="200.00px" viewBox="0 0 1024 1024" version="1.1" xmlns="http://www.w3.org/2000/svg"><path fill="#2c2c2c" d="M874.666667 234.666667h-354.133334L422.4 115.2c-4.266667-4.266667-12.8-8.533333-17.066667-8.533333h-256C115.2 106.666667 85.333333 136.533333 85.333333 170.666667v682.666666c0 34.133333 29.866667 64 64 64h725.333334c34.133333 0 64-29.866667 64-64V298.666667c0-34.133333-29.866667-64-64-64zM443.733333 665.6l-29.866666 29.866667-106.666667-106.666667c-8.533333-8.533333-8.533333-21.333333 0-29.866667l106.666667-106.666666 29.866666 29.866666-89.6 89.6 89.6 93.866667z m277.333334-72.533333l-106.666667 106.666666-29.866667-29.866666 89.6-89.6-89.6-89.6 29.866667-29.866667 106.666667 106.666667c4.266667 0 4.266667 17.066667 0 25.6z" /></svg>