<?xml version="1.0" standalone="no"?><!DOCTYPE svg PUBLIC "-//W3C//DTD SVG 1.1//EN" "http://www.w3.org/Graphics/SVG/1.1/DTD/svg11.dtd"><svg class="icon" width="200px" height="200.00px" viewBox="0 0 1024 1024" version="1.1" xmlns="http://www.w3.org/2000/svg"><path fill="#2c2c2c" d="M574.5 559.8c-16.1 14.3-38 22.2-61.5 22.2-11.1 0-21.9-1.8-31.9-5.2l-36.4 36.4c20 10.7 43.3 16.8 68.3 16.8 72.9 0 132-52.4 132-117 0-27.2-10.5-52.2-28-72.1L583 475c9.1 11.2 14 24.4 14 38 0 17.3-8 33.9-22.5 46.8zM773 284.9l-35.8 35.8c22.6 10.9 44.1 23.4 63.6 37.1 35.2 24.6 64.1 52.9 83.6 81.7 17.6 26 26.9 51.5 26.9 73.7 0 21.1-9.3 45.8-26.8 71.6-19.7 28.9-48.6 57.3-83.8 82.2-37.9 26.8-82.6 49.1-129.3 64.4-51.7 16.9-105.2 25.5-159 25.5-53.9 0-107.4-8.6-159-25.5-6.7-2.2-13.3-4.5-19.8-7l-37 37c64 26.8 137.6 43.5 215.9 43.5 246.9 0 447-166 447-291.8-0.2-78.9-73.7-169.2-186.5-228.2zM884.7 95.6c-9.4-9.4-24.6-9.4-33.9 0l-155.9 156c-55.7-18.9-117.5-30.1-182.5-30.1-246.9 0-447 161.3-447 291.8 0 69.4 61.1 151.2 157.4 210.5l-140 140c-9.4 9.4-9.4 24.6 0 33.9 4.7 4.7 10.8 7 17 7s12.3-2.3 17-7l768.1-768.1c9.2-9.4 9.2-24.6-0.2-34zM224 667.1c-35.2-24.9-64.2-53.3-83.8-82.2-17.5-25.8-26.8-50.5-26.8-71.6 0-22.2 9.3-47.7 26.9-73.7 19.5-28.9 48.4-57.1 83.6-81.7 37.7-26.4 82.4-48.3 129.2-63.3 51.6-16.6 105.2-24.9 159.3-24.9 48.9 0 97.3 6.9 144.2 20.4l-110 109.7c-10.7-2.5-22-3.8-33.6-3.8-72.9 0-132 52.4-132 117 0 15.2 3.3 29.8 9.3 43.2L257.7 688.7c-11.7-6.8-23-14-33.7-21.6zM429 513c0-17.3 8-34 22.5-46.8 13.6-12 31.1-19.5 50.4-21.6l-72.7 72.7c-0.1-1.5-0.2-2.9-0.2-4.3z" /></svg>