<?xml version="1.0" standalone="no"?><!DOCTYPE svg PUBLIC "-//W3C//DTD SVG 1.1//EN" "http://www.w3.org/Graphics/SVG/1.1/DTD/svg11.dtd"><svg class="icon" width="200px" height="200.00px" viewBox="0 0 1024 1024" version="1.1" xmlns="http://www.w3.org/2000/svg"><path fill="#2c2c2c" d="M922.3 67.6c-2.9 0-5.8 0.4-8.8 1.2L90.2 289.4c-24.8 6.6-33.1 37.7-15 55.8l263.4 263.4c-0.6 1.1-1.1 2.3-1.5 3.5L233.4 929.5c-3.7 11.3 2 25.1 12.9 29.9 3.2 1.4 6.5 2.1 9.8 2.1 10.1 0 19.5-6.4 22.8-16.5l97.6-298.5L678 948c6.7 6.7 15.1 9.8 23.5 9.8 14.3 0 28.2-9.1 32.4-24.7l220.6-823.4c5.8-21.9-11.1-42.1-32.2-42.1zM694 896.1L407.4 609.5l248.7-221.8c9.9-8.8 10.8-24 1.9-33.9-8.8-9.9-24-10.8-33.9-1.9L373.4 575.5 127.1 329.2l774.4-207.5L694 896.1z" /></svg>