<?xml version="1.0" standalone="no"?><!DOCTYPE svg PUBLIC "-//W3C//DTD SVG 1.1//EN" "http://www.w3.org/Graphics/SVG/1.1/DTD/svg11.dtd"><svg class="icon" width="200px" height="200.00px" viewBox="0 0 1024 1024" version="1.1" xmlns="http://www.w3.org/2000/svg"><path fill="#2c2c2c" d="M882.4 66.6H141c-42 0-76.3 34.2-76.3 76.3v594c0 42 34.2 76.3 76.3 76.3h225.4l94.8 94.8c13.2 13.2 30.8 20.5 49.5 20.5s36.3-7.3 49.5-20.5l94.8-94.8h227.4c42 0 76.3-34.2 76.3-76.3v-594c0-42.1-34.2-76.3-76.3-76.3z m26.3 670.3c0 14.5-11.8 26.3-26.3 26.3H634.3L524.8 872.6c-3.8 3.8-8.8 5.9-14.1 5.9-5.3 0-10.4-2.1-14.1-5.9L387.1 763.1H141c-14.5 0-26.3-11.8-26.3-26.3v-594c0-14.5 11.8-26.3 26.3-26.3h741.4c14.5 0 26.3 11.8 26.3 26.3v594.1zM286.8 347.3c-51 0-92.5 41.5-92.5 92.5s41.5 92.5 92.5 92.5 92.5-41.5 92.5-92.5-41.5-92.5-92.5-92.5z m0 135.1c-23.5 0-42.5-19.1-42.5-42.5s19.1-42.5 42.5-42.5c23.5 0 42.5 19.1 42.5 42.5s-19.1 42.5-42.5 42.5zM510.7 347.3c-51 0-92.5 41.5-92.5 92.5s41.5 92.5 92.5 92.5 92.5-41.5 92.5-92.5-41.5-92.5-92.5-92.5z m0 135.1c-23.5 0-42.5-19.1-42.5-42.5s19.1-42.5 42.5-42.5 42.5 19.1 42.5 42.5-19.1 42.5-42.5 42.5zM736.7 347.3c-51 0-92.5 41.5-92.5 92.5s41.5 92.5 92.5 92.5 92.5-41.5 92.5-92.5-41.5-92.5-92.5-92.5z m0 135.1c-23.5 0-42.5-19.1-42.5-42.5s19.1-42.5 42.5-42.5c23.5 0 42.5 19.1 42.5 42.5s-19.1 42.5-42.5 42.5z" /></svg>