<?xml version="1.0" standalone="no"?><!DOCTYPE svg PUBLIC "-//W3C//DTD SVG 1.1//EN" "http://www.w3.org/Graphics/SVG/1.1/DTD/svg11.dtd"><svg class="icon" width="200px" height="200.00px" viewBox="0 0 1024 1024" version="1.1" xmlns="http://www.w3.org/2000/svg"><path fill="#2c2c2c" d="M511.9 408.1c-57.3 0-103.8 46.5-103.8 103.8s46.5 103.8 103.8 103.8 103.8-46.5 103.8-103.8-46.5-103.8-103.8-103.8z m0 159.6c-30.8 0-55.8-25-55.8-55.8 0-30.8 25-55.8 55.8-55.8 30.8 0 55.8 25 55.8 55.8 0 30.7-25.1 55.8-55.8 55.8zM853.2 408.1c-57.3 0-103.8 46.5-103.8 103.8s46.5 103.8 103.8 103.8S957 569.2 957 511.9s-46.5-103.8-103.8-103.8z m0 159.6c-30.8 0-55.8-25-55.8-55.8 0-30.8 25-55.8 55.8-55.8 30.8 0 55.8 25 55.8 55.8 0 30.7-25 55.8-55.8 55.8zM169.2 408.1c-57.3 0-103.8 46.5-103.8 103.8s46.5 103.8 103.8 103.8S273 569.2 273 511.9s-46.5-103.8-103.8-103.8z m0 159.6c-30.8 0-55.8-25-55.8-55.8 0-30.8 25-55.8 55.8-55.8 30.8 0 55.8 25 55.8 55.8 0 30.7-25 55.8-55.8 55.8z" /></svg>