<?xml version="1.0" standalone="no"?><!DOCTYPE svg PUBLIC "-//W3C//DTD SVG 1.1//EN" "http://www.w3.org/Graphics/SVG/1.1/DTD/svg11.dtd"><svg class="icon" width="200px" height="200.00px" viewBox="0 0 1024 1024" version="1.1" xmlns="http://www.w3.org/2000/svg"><path fill="#2c2c2c" d="M618.4 63.9L309 270H106.4c-22.1 0-40 17.9-40 40v404.3c0 22.1 17.9 40 40 40H311l307.5 205.4c22.1 0 40-17.9 40-40V103.9c-0.1-22-18-40-40.1-40z m-8 832.8L337.7 714.4l-12.1-8.1H114.4V318h209.1l12.1-8 274.9-183v769.7zM792.1 501.1c-4.6-78.3-57.4-124.2-73.5-136.4-10.6-8-25.6-5.9-33.6 4.6-8 10.6-5.9 25.6 4.6 33.6 8.5 6.5 51.1 41.7 54.6 101 4.1 71.2-52.2 115.2-54.6 117-10.5 8.1-12.5 23.1-4.5 33.6 4.7 6.2 11.9 9.4 19.1 9.4 5.1 0 10.2-1.6 14.6-4.9 8-6.2 78.8-63.2 73.3-157.9zM959.2 502.1C957.1 340.6 845.4 244.6 823 227c-10.4-8.2-25.5-6.4-33.7 4-8.2 10.4-6.4 25.5 4 33.7 19.4 15.2 116.1 98.3 117.9 238 0.8 62.3-17.2 121.2-53.6 175.1-27.3 40.5-56.2 64.6-64.3 71.1-10.4 8.2-12.2 23.3-4 33.7 4.7 6 11.8 9.2 18.9 9.2 5.2 0 10.4-1.7 14.8-5.1 9.6-7.5 43.2-35.7 74.5-82 18.5-27.5 33.1-56.7 43.4-86.9 12.7-37.2 18.9-76.2 18.3-115.7z" /></svg>