<?xml version="1.0" standalone="no"?><!DOCTYPE svg PUBLIC "-//W3C//DTD SVG 1.1//EN" "http://www.w3.org/Graphics/SVG/1.1/DTD/svg11.dtd"><svg class="icon" width="200px" height="200.00px" viewBox="0 0 1024 1024" version="1.1" xmlns="http://www.w3.org/2000/svg"><path fill="#2c2c2c" d="M905.3 383.8H344.1V275.3c0-89.5 72.8-162.3 162.3-162.3h11.4c89.5 0 162.3 72.8 162.3 162.3V330c0 13.3 10.7 24 24 24s24-10.7 24-24v-54.7c0-56-21.9-108.7-61.8-148.6-39.8-39.8-92.6-61.8-148.6-61.8h-11.4c-56 0-108.7 21.9-148.6 61.8-39.8 39.8-61.8 92.6-61.8 148.6v108.5H118.3c-30 0-54.3 24.3-54.3 54.3v467.2c0 30 24.3 54.3 54.3 54.3h787c30 0 54.3-24.3 54.3-54.3V438.1c0-30-24.3-54.3-54.3-54.3z m6.3 521.5c0 3.5-2.8 6.3-6.3 6.3h-787c-3.5 0-6.3-2.8-6.3-6.3V438.1c0-3.5 2.8-6.3 6.3-6.3h787c3.5 0 6.3 2.8 6.3 6.3v467.2zM508.2 537.6c-13.3 0-24 10.7-24 24v256.2c0 13.3 10.7 24 24 24s24-10.7 24-24V561.6c0-13.3-10.7-24-24-24z" /></svg>