<?xml version="1.0" standalone="no"?><!DOCTYPE svg PUBLIC "-//W3C//DTD SVG 1.1//EN" "http://www.w3.org/Graphics/SVG/1.1/DTD/svg11.dtd"><svg class="icon" width="200px" height="200.00px" viewBox="0 0 1024 1024" version="1.1" xmlns="http://www.w3.org/2000/svg"><path fill="#2c2c2c" d="M917.333333 759.466667V810.666667c0 12.8-8.533333 21.333333-21.333333 21.333333H128c-12.8 0-21.333333-8.533333-21.333333-21.333333V256c0-12.8 8.533333-21.333333 21.333333-21.333333h298.666667v-42.666667H128c-34.133333 0-64 29.866667-64 64v554.666667c0 34.133333 29.866667 64 64 64h768c34.133333 0 64-29.866667 64-64v-51.2h-42.666667zM213.333333 469.333333h170.666667v42.666667H213.333333zM213.333333 640h512v42.666667H213.333333zM810.666667 465.066667c38.4-25.6 64-72.533333 64-123.733334 0-81.066667-68.266667-149.333333-149.333334-149.333333S576 260.266667 576 341.333333c0 46.933333 25.6 89.6 59.733333 119.466667-38.4 12.8-68.266667 29.866667-98.133333 59.733333l29.866667 29.866667c42.666667-38.4 81.066667-59.733333 157.866666-59.733333 76.8 0 157.866667 51.2 196.266667 123.733333l38.4-21.333333c-34.133333-59.733333-89.6-106.666667-149.333333-128z" /></svg>