<?xml version="1.0" standalone="no"?><!DOCTYPE svg PUBLIC "-//W3C//DTD SVG 1.1//EN" "http://www.w3.org/Graphics/SVG/1.1/DTD/svg11.dtd"><svg class="icon" width="200px" height="200.00px" viewBox="0 0 1024 1024" version="1.1" xmlns="http://www.w3.org/2000/svg"><path fill="#2c2c2c" d="M896 149.333333H128c-34.133333 0-64 29.866667-64 64v597.333334c0 34.133333 29.866667 64 64 64h213.333333v-42.666667H128c-12.8 0-21.333333-8.533333-21.333333-21.333333V213.333333c0-12.8 8.533333-21.333333 21.333333-21.333333h768c12.8 0 21.333333 8.533333 21.333333 21.333333v128h42.666667V213.333333c0-34.133333-29.866667-64-64-64zM896 490.666667h-341.333333c-34.133333 0-64 29.866667-64 64v256c0 34.133333 29.866667 64 64 64h341.333333c34.133333 0 64-29.866667 64-64v-256c0-34.133333-29.866667-64-64-64z" /></svg>