<?xml version="1.0" standalone="no"?><!DOCTYPE svg PUBLIC "-//W3C//DTD SVG 1.1//EN" "http://www.w3.org/Graphics/SVG/1.1/DTD/svg11.dtd"><svg class="icon" width="200px" height="200.00px" viewBox="0 0 1024 1024" version="1.1" xmlns="http://www.w3.org/2000/svg"><path fill="#2c2c2c" d="M937 359.8c-13.3 0-24 10.7-24 24v504.4c0 13.2-10.8 24-24 24H137c-13.2 0-24-10.8-24-24v-752c0-13.2 10.8-24 24-24h503.1c13.3 0 24-10.7 24-24s-10.7-24-24-24H137c-39.7 0-72 32.3-72 72v752c0 39.7 32.3 72 72 72h752c39.7 0 72-32.3 72-72V383.8c0-13.3-10.7-24-24-24zM274.5 697.8c-9.5 27.5 11.7 54 38.2 54 4.5 0 9.1-0.8 13.7-2.4 78-27.4 187-67 197.5-77.5l422.6-422.6c16.5-16.5 16.5-43.3 0-59.9L834.1 77.1c-8.2-8.2-19.1-12.4-29.9-12.4-10.9 0-21.7 4.2-29.9 12.4L351.6 499.8c-10.6 10.4-49.9 119.9-77.1 198z m525.9-594.7c1.3-1.3 2.8-1.6 3.8-1.6s2.5 0.3 3.8 1.6l112.4 112.4c1.3 1.3 1.6 2.8 1.6 3.8-0.2 1-0.4 2.5-1.7 3.8l-50.5 50.5-120-120 50.6-50.5z m-82.7 82.7l120 120-337.8 337.9c-7 3.9-40 19.6-185.8 70.9-0.5 0.2-1 0.3-1.5 0.3-1.2 0-2.3-0.8-2.9-1.8-0.8-1.2-0.8-2.1-0.4-3.2 50.9-146.1 66.6-179.2 70.5-186.3l337.9-337.8z" /></svg>