<?xml version="1.0" standalone="no"?><!DOCTYPE svg PUBLIC "-//W3C//DTD SVG 1.1//EN" "http://www.w3.org/Graphics/SVG/1.1/DTD/svg11.dtd"><svg class="icon" width="200px" height="200.00px" viewBox="0 0 1024 1024" version="1.1" xmlns="http://www.w3.org/2000/svg"><path fill="#2c2c2c" d="M874.666667 128h-170.666667V85.333333h-42.666667v42.666667h-298.666666V85.333333h-42.666667v42.666667h-170.666667C115.2 128 85.333333 157.866667 85.333333 192V853.333333c0 34.133333 29.866667 64 64 64h725.333334c34.133333 0 64-29.866667 64-64V192c0-34.133333-29.866667-64-64-64zM128 192c0-12.8 8.533333-21.333333 21.333333-21.333333h170.666667v85.333333h42.666667V170.666667h298.666666v85.333333h42.666667V170.666667h170.666667c12.8 0 21.333333 8.533333 21.333333 21.333333V384H128V192z m298.666667 554.666667H298.666667v-42.666667h128v42.666667z m0-170.666667H298.666667v-42.666667h128v42.666667z m298.666666 170.666667h-128v-42.666667h128v42.666667z m0-170.666667h-128v-42.666667h128v42.666667z" /></svg>