<?xml version="1.0" standalone="no"?><!DOCTYPE svg PUBLIC "-//W3C//DTD SVG 1.1//EN" "http://www.w3.org/Graphics/SVG/1.1/DTD/svg11.dtd"><svg class="icon" width="200px" height="200.00px" viewBox="0 0 1024 1024" version="1.1" xmlns="http://www.w3.org/2000/svg"><path fill="#2c2c2c" d="M951 917.1L776.4 741.9C840.3 670 879 575.4 879 471.7c0-224.9-182.3-407.3-407.3-407.3S64.5 246.8 64.5 471.7 246.8 879 471.8 879c104 0 198.8-39 270.8-103.1l174.4 175c4.7 4.7 10.8 7.1 17 7.1 6.1 0 12.3-2.3 16.9-7 9.4-9.4 9.5-24.6 0.1-33.9zM611.6 802.7c-44.3 18.7-91.3 28.2-139.8 28.2-48.5 0-95.6-9.5-139.8-28.2-42.8-18.1-81.2-44-114.2-77s-58.9-71.4-77-114.2c-18.7-44.3-28.2-91.3-28.2-139.8s9.5-95.6 28.2-139.8c18.1-42.8 44-81.2 77-114.2s71.4-58.9 114.2-77c44.3-18.7 91.3-28.2 139.8-28.2 48.5 0 95.6 9.5 139.8 28.2 42.8 18.1 81.2 44 114.2 77s58.9 71.4 77 114.2c18.7 44.3 28.2 91.3 28.2 139.8s-9.5 95.6-28.2 139.8c-18.1 42.8-44 81.2-77 114.2s-71.5 58.9-114.2 77z" /></svg>