<?xml version="1.0" standalone="no"?><!DOCTYPE svg PUBLIC "-//W3C//DTD SVG 1.1//EN" "http://www.w3.org/Graphics/SVG/1.1/DTD/svg11.dtd"><svg class="icon" width="200px" height="200.00px" viewBox="0 0 1024 1024" version="1.1" xmlns="http://www.w3.org/2000/svg"><path fill="#2c2c2c" d="M896.3 212.2c-0.1-11.7-8.7-21.6-20.2-23.4-67.9-10.9-289-51.1-364-124.5 0 0-167.8 118.9-362.9 127.1-12.3 0.5-22.2 10.1-23 22.3-7.6 110.2-18.4 604.2 377.7 743.7 5.3 1.9 11.1 1.8 16.4-0.2 408-152.2 378.4-542.5 376-745zM846 422.1c-5.5 72.4-17.7 134.7-37.3 190.3-11.3 32.2-25.3 62.5-41.6 90.1-17.7 29.9-38.7 57.6-62.4 82.3-25.7 26.8-55.4 51-88.3 71.9-29 18.4-61.2 34.8-96 48.9-5.7 2.3-12 2.3-17.7 0.1-39.6-15.6-76-35.8-108.5-60.3-35.6-26.8-67.5-59.4-94.8-96.8-46.9-64.4-81.5-144.5-102.9-238-19.4-85-24.1-165.4-24.5-217.9-0.1-12.1 0-23.2 0.2-33.4 0.3-11.9 9.3-21.9 21.2-23.3 71.9-8.2 146.6-29.7 223-64.3 39.3-17.8 71.2-35.6 92.8-48.6 47.3 32 120 60.2 216.9 84.2 41.6 10.3 80.4 18 109.7 23.3 7.5 1.3 13 7.8 13.1 15.4 0.9 52.7 2 112.6-2.9 176.1zM689.5 316.5l-209 209L377 422c-9.4-9.4-24.6-9.4-33.9 0-9.4 9.4-9.4 24.6 0 33.9l109.4 109.4c7.5 7.5 17.5 11.6 28.1 11.6s20.6-4.1 28.1-11.6l214.9-214.9c9.4-9.4 9.4-24.6 0-33.9-9.5-9.3-24.7-9.3-34.1 0z" /></svg>