<?xml version="1.0" standalone="no"?><!DOCTYPE svg PUBLIC "-//W3C//DTD SVG 1.1//EN" "http://www.w3.org/Graphics/SVG/1.1/DTD/svg11.dtd"><svg class="icon" width="200px" height="200.00px" viewBox="0 0 1024 1024" version="1.1" xmlns="http://www.w3.org/2000/svg"><path fill="#2c2c2c" d="M511.8 113.9c20.8 0 40.9 5.5 58.3 16 18.7 11.2 33.3 27.5 43.3 48.2 26.8 55.6 83.9 91.5 145.3 91.5 5.3 0 10.7-0.3 15.9-0.8l38.1-3.8c3.2-0.3 6.5-0.5 9.7-0.5 17.4 0 33.4 4.8 47.6 14.2 13.4 8.9 24.3 21.6 31.6 36.7 7.3 15.1 10.3 31.6 8.8 47.7-1.6 17.4-8.3 33.5-19.8 47.9-47.2 59-47.2 144.6 0 203.6 11.6 14.4 18.2 30.6 19.8 47.9 1.5 16.1-1.6 32.6-8.8 47.7-7.2 15.1-18.1 27.7-31.6 36.7-14.1 9.4-30.1 14.2-47.6 14.2-3.2 0-6.4-0.2-9.7-0.5l-38.1-3.8c-5.3-0.5-10.6-0.8-15.9-0.8-61.5 0-118.5 35.9-145.3 91.5-10 20.7-24.6 36.9-43.3 48.2-17.4 10.4-37.6 16-58.3 16-20.8 0-41-5.5-58.3-16-18.7-11.2-33.3-27.5-43.3-48.2-26.8-55.6-83.9-91.5-145.3-91.5-5.3 0-10.7 0.3-15.9 0.8l-38.1 3.8c-3.2 0.3-6.5 0.5-9.7 0.5-17.4 0-33.4-4.8-47.6-14.2-13.4-8.9-24.3-21.6-31.6-36.7-7.3-15.1-10.3-31.6-8.8-47.7 1.6-17.4 8.3-33.5 19.8-47.9 47.2-59 47.2-144.6 0-203.6-11.6-14.4-18.2-30.6-19.8-47.9-1.5-16.1 1.6-32.6 8.8-47.7 7.2-15.1 18.1-27.7 31.6-36.7 14.1-9.4 30.1-14.2 47.6-14.2 3.2 0 6.4 0.2 9.7 0.5l38.1 3.8c5.3 0.5 10.6 0.8 15.9 0.8 61.5 0 118.5-35.9 145.3-91.5 10-20.7 24.6-36.9 43.3-48.2 17.3-10.4 37.5-16 58.3-16m0 641.8c133.8 0 242.7-108.9 242.7-242.7S645.6 270.2 511.8 270.2 269 379.1 269 512.9s108.9 242.8 242.8 242.8m0-689.8c-57.7 0-115.5 30.4-144.8 91.3-19.1 39.6-59 64.4-102.1 64.4-3.7 0-7.4-0.2-11.2-0.6l-38.1-3.8c-4.9-0.5-9.7-0.7-14.4-0.7-112.3 0-178.8 133.2-105.6 224.6 33.6 41.9 33.6 101.7 0 143.6-73.2 91.4-6.7 224.6 105.6 224.6 4.7 0 9.5-0.2 14.4-0.7l38.1-3.8c3.7-0.4 7.5-0.6 11.2-0.6 43.1 0 83 24.7 102.1 64.4 29.4 60.9 87.1 91.3 144.8 91.3s115.5-30.4 144.8-91.3c19.1-39.6 59-64.4 102.1-64.4 3.7 0 7.4 0.2 11.2 0.6l38.1 3.8c4.9 0.5 9.7 0.7 14.4 0.7 112.3 0 178.8-133.2 105.6-224.6-33.6-41.9-33.6-101.7 0-143.6 73.2-91.4 6.7-224.6-105.6-224.6-4.7 0-9.5 0.2-14.4 0.7l-38.1 3.8c-3.7 0.4-7.5 0.6-11.2 0.6-43.1 0-83-24.7-102.1-64.4-29.4-60.8-87.1-91.3-144.8-91.3z m0 641.8c-107.6 0-194.7-87.2-194.7-194.7s87.2-194.7 194.7-194.7S706.5 405.5 706.5 513s-87.2 194.7-194.7 194.7z" /></svg>