<?xml version="1.0" standalone="no"?><!DOCTYPE svg PUBLIC "-//W3C//DTD SVG 1.1//EN" "http://www.w3.org/Graphics/SVG/1.1/DTD/svg11.dtd"><svg class="icon" width="200px" height="200.00px" viewBox="0 0 1024 1024" version="1.1" xmlns="http://www.w3.org/2000/svg"><path fill="#2c2c2c" d="M928 584.7c-33.6-41.9-33.6-101.7 0-143.6 76.3-95.2 0.8-235.9-120.1-223.9l-38.1 3.8c-47.3 4.7-92.5-20.8-113.3-63.8-58.7-121.7-230.9-121.7-289.7 0-20.8 43.1-66 68.5-113.3 63.8l-38.1-3.8C94.6 205.3 19.2 345.9 95.5 441.2c33.6 41.9 33.6 101.7 0 143.6-76.3 95.2-0.9 235.8 120 223.8l38.1-3.8c47.3-4.7 92.5 20.8 113.3 63.8 58.7 121.7 230.9 121.7 289.7 0 20.8-43.1 66-68.5 113.3-63.8l38.1 3.8c120.9 12 196.3-128.6 120-223.9z m-416.2 123c-107.6 0-194.7-87.2-194.7-194.7s87.2-194.7 194.7-194.7S706.5 405.5 706.5 513s-87.2 194.7-194.7 194.7z" /></svg>