<?xml version="1.0" standalone="no"?><!DOCTYPE svg PUBLIC "-//W3C//DTD SVG 1.1//EN" "http://www.w3.org/Graphics/SVG/1.1/DTD/svg11.dtd"><svg class="icon" width="200px" height="200.00px" viewBox="0 0 1024 1024" version="1.1" xmlns="http://www.w3.org/2000/svg"><path fill="#2c2c2c" d="M822.4 684c-47.2 0-88.9 23.8-113.7 60L406.9 643c13.9-25.8 21.8-55.2 21.8-86.5 0-34.8-9.7-67.3-26.6-95L709 281c24.9 36 66.4 59.6 113.4 59.6 76.1 0 137.8-61.7 137.8-137.8S898.5 65 822.4 65s-137.8 61.7-137.8 137.8c0 11.8 1.5 23.3 4.3 34.3L371.5 423.8c-32.7-30.9-76.8-49.8-125.3-49.8-100.8 0-182.5 81.7-182.5 182.5S145.4 739 246.1 739c51.3 0 97.7-21.2 130.9-55.3L688.8 788c-2.7 10.8-4.2 22.1-4.2 33.8 0 76.1 61.7 137.8 137.8 137.8s137.8-61.7 137.8-137.8S898.5 684 822.4 684z m0-571c49.5 0 89.8 40.3 89.8 89.8s-40.3 89.8-89.8 89.8-89.8-40.3-89.8-89.8 40.3-89.8 89.8-89.8zM246.1 691c-35.9 0-69.7-14-95.1-39.4s-39.4-59.2-39.4-95.1 14-69.7 39.4-95.1c25.4-25.4 59.2-39.4 95.1-39.4s69.7 14 95.1 39.4c25.4 25.4 39.4 59.2 39.4 95.1s-14 69.7-39.4 95.1C315.8 677 282.1 691 246.1 691z m576.3 220.5c-49.5 0-89.8-40.3-89.8-89.8s40.3-89.8 89.8-89.8 89.8 40.3 89.8 89.8-40.3 89.8-89.8 89.8z" /></svg>