<?xml version="1.0" standalone="no"?><!DOCTYPE svg PUBLIC "-//W3C//DTD SVG 1.1//EN" "http://www.w3.org/Graphics/SVG/1.1/DTD/svg11.dtd"><svg class="icon" width="200px" height="195.98px" viewBox="0 0 1045 1024" version="1.1" xmlns="http://www.w3.org/2000/svg"><path fill="#2c2c2c" d="M491.690667 128.853333a64 64 0 0 1 83.285333 0l262.442667 224.938667A106.666667 106.666667 0 0 1 874.666667 434.773333V832a85.333333 85.333333 0 0 1-85.333334 85.333333H277.333333a85.333333 85.333333 0 0 1-85.333333-85.333333V434.773333a106.666667 106.666667 0 0 1 37.248-80.981333zM533.333333 205.504l-248.533333 213.056a21.333333 21.333333 0 0 0-7.466667 16.192V832h512V434.773333a21.333333 21.333333 0 0 0-7.466666-16.213333L533.333333 205.546667zM554.666667 576a21.333333 21.333333 0 0 1 21.333333 21.333333v170.666667a21.333333 21.333333 0 0 1-21.333333 21.333333h-42.666667a21.333333 21.333333 0 0 1-21.333333-21.333333v-170.666667a21.333333 21.333333 0 0 1 21.333333-21.333333h42.666667z"  /></svg>