<?xml version="1.0" standalone="no"?><!DOCTYPE svg PUBLIC "-//W3C//DTD SVG 1.1//EN" "http://www.w3.org/Graphics/SVG/1.1/DTD/svg11.dtd"><svg class="icon" width="200px" height="200.00px" viewBox="0 0 1024 1024" version="1.1" xmlns="http://www.w3.org/2000/svg"><path fill="#2c2c2c" d="M810.666667 64H213.333333c-34.133333 0-64 29.866667-64 64v768c0 34.133333 29.866667 64 64 64h597.333334c34.133333 0 64-29.866667 64-64V128c0-34.133333-29.866667-64-64-64zM725.333333 469.333333c0 8.533333-4.266667 17.066667-12.8 21.333334h-8.533333c-4.266667 0-12.8-4.266667-17.066667-8.533334l-110.933333-119.466666-110.933333 119.466666c-4.266667 4.266667-17.066667 8.533333-21.333334 4.266667-12.8 0-17.066667-8.533333-17.066666-17.066667V106.666667h298.666666V469.333333z" /></svg>