<?xml version="1.0" standalone="no"?><!DOCTYPE svg PUBLIC "-//W3C//DTD SVG 1.1//EN" "http://www.w3.org/Graphics/SVG/1.1/DTD/svg11.dtd"><svg class="icon" width="200px" height="200.00px" viewBox="0 0 1024 1024" version="1.1" xmlns="http://www.w3.org/2000/svg"><path fill="#2c2c2c" d="M949.1 436.9c14.7-14.4 6.6-39.4-13.8-42.4L670.5 356c-8.1-1.2-15.1-6.3-18.7-13.6L533.4 102.6c-4.6-9.2-13.4-13.8-22.3-13.8s-17.7 4.6-22.3 13.8L370.5 342.5c-3.6 7.3-10.6 12.4-18.7 13.6L87 394.6c-20.4 3-28.5 28-13.8 42.4l191.6 186.7c5.9 5.7 8.5 13.9 7.1 22l-45.2 263.7c-2.8 16.1 10 29.1 24.5 29.1 3.8 0 7.8-0.9 11.6-2.9L499.6 811c3.6-1.9 7.6-2.9 11.6-2.9s7.9 1 11.6 2.9l236.8 124.5c3.8 2 7.7 2.9 11.6 2.9 14.5 0 27.2-13 24.5-29.1l-45.2-263.7c-1.4-8.1 1.3-16.3 7.1-22l191.5-186.7zM703 653.8l37.3 217.4-195.2-102.6c-10.4-5.5-22.1-8.4-33.9-8.4-11.8 0-23.5 2.9-33.9 8.4L282 871.2l37.3-217.4c4.1-23.6-3.8-47.7-20.9-64.5l-158-154 218.3-31.7c23.7-3.4 44.2-18.3 54.8-39.8L511.1 166l97.6 197.8c10.6 21.5 31.1 36.4 54.8 39.8L882 435.3l-158 154c-17.2 16.7-25 40.8-21 64.5z" /></svg>