<?xml version="1.0" standalone="no"?><!DOCTYPE svg PUBLIC "-//W3C//DTD SVG 1.1//EN" "http://www.w3.org/Graphics/SVG/1.1/DTD/svg11.dtd"><svg class="icon" width="200px" height="200.00px" viewBox="0 0 1024 1024" version="1.1" xmlns="http://www.w3.org/2000/svg"><path fill="#2c2c2c" d="M949.1 436.9c14.7-14.4 6.6-39.4-13.8-42.4L670.5 356c-8.1-1.2-15.1-6.3-18.7-13.6L533.4 102.6c-9.1-18.5-35.4-18.5-44.6 0L370.5 342.5c-3.6 7.3-10.6 12.4-18.7 13.6L87 394.6c-20.4 3-28.5 28-13.8 42.4l191.6 186.7c5.9 5.7 8.5 13.9 7.1 22l-45.2 263.7c-3.5 20.3 17.8 35.8 36 26.2L499.6 811c7.2-3.8 15.9-3.8 23.1 0l236.8 124.5c18.2 9.6 39.5-5.9 36-26.2l-45.2-263.7c-1.4-8.1 1.3-16.3 7.1-22l191.7-186.7z" /></svg>