<?xml version="1.0" standalone="no"?><!DOCTYPE svg PUBLIC "-//W3C//DTD SVG 1.1//EN" "http://www.w3.org/Graphics/SVG/1.1/DTD/svg11.dtd"><svg class="icon" width="200px" height="200.00px" viewBox="0 0 1024 1024" version="1.1" xmlns="http://www.w3.org/2000/svg"><path fill="#2c2c2c" d="M511.3 65.2C263.7 65.2 63 265.9 63 513.5s200.7 448.3 448.3 448.3 448.3-200.7 448.3-448.3S758.9 65.2 511.3 65.2z m283 731.4c-36.8 36.8-79.6 65.6-127.3 85.8-49.3 20.9-101.7 31.4-155.8 31.4s-106.5-10.6-155.8-31.4c-47.7-20.2-90.5-49-127.3-85.8s-65.6-79.6-85.8-127.3C121.6 620 111 567.6 111 513.5s10.6-106.5 31.4-155.8c20.2-47.7 49-90.5 85.8-127.3s79.6-65.6 127.3-85.8c49.3-20.9 101.7-31.4 155.8-31.4s106.5 10.6 155.8 31.4c47.7 20.2 90.5 49 127.3 85.8S860 310 880.2 357.7c20.9 49.3 31.4 101.7 31.4 155.8S901 620 880.1 669.3c-20.1 47.7-49 90.5-85.8 127.3zM769.1 489.5h-233V256c0-13.3-10.7-24-24-24s-24 10.7-24 24v257.6c0 13.3 10.7 24 24 24h257c13.3 0 24-10.7 24-24s-10.7-24.1-24-24.1z" /></svg>