<?xml version="1.0" standalone="no"?><!DOCTYPE svg PUBLIC "-//W3C//DTD SVG 1.1//EN" "http://www.w3.org/Graphics/SVG/1.1/DTD/svg11.dtd"><svg class="icon" width="200px" height="200.00px" viewBox="0 0 1024 1024" version="1.1" xmlns="http://www.w3.org/2000/svg"><path fill="#2c2c2c" d="M512 64c-200.533333 0-362.666667 162.133333-362.666667 362.666667 0 145.066667 89.6 277.333333 217.6 332.8l17.066667 162.133333c0 21.333333 21.333333 38.4 42.666667 38.4h170.666666c21.333333 0 42.666667-17.066667 42.666667-38.4l12.8-162.133333c132.266667-55.466667 217.6-187.733333 217.6-332.8 4.266667-200.533333-157.866667-362.666667-358.4-362.666667z m85.333333 853.333333H422.4L413.866667 768h200.533333l-17.066667 149.333333z m64-426.666666c0 8.533333-4.266667 12.8-8.533333 17.066666-4.266667 4.266667-8.533333 4.266667-12.8 4.266667-4.266667 0-8.533333 0-8.533333-4.266667L512 452.266667 392.533333 512c-8.533333 4.266667-12.8 4.266667-21.333333 0-4.266667-4.266667-8.533333-12.8-8.533333-17.066667v-128h42.666666v93.866667l98.133334-46.933333c4.266667-4.266667 12.8-4.266667 17.066666 0l98.133334 46.933333V362.666667h42.666666v128z" /></svg>