<?xml version="1.0" standalone="no"?><!DOCTYPE svg PUBLIC "-//W3C//DTD SVG 1.1//EN" "http://www.w3.org/Graphics/SVG/1.1/DTD/svg11.dtd"><svg class="icon" width="200px" height="200.00px" viewBox="0 0 1024 1024" version="1.1" xmlns="http://www.w3.org/2000/svg"><path fill="#2c2c2c" d="M567.2 419H273.8c-13.8 0-25 11.2-25 25s11.2 25 25 25h293.4c13.8 0 25-11.2 25-25s-11.2-25-25-25zM273.8 604.1H403c13.8 0 25-11.2 25-25s-11.2-25-25-25H273.8c-13.8 0-25 11.2-25 25s11.2 25 25 25zM117 886.5V136.6c0-11 8.9-20 19.8-20h567.3c10.9 0 19.8 9 19.8 20V419h50V136.6c0-38.6-31.3-70-69.8-70H136.9C98.4 66.6 67 98 67 136.6v749.8c0 38.6 31.3 70 69.8 70h318.5v-50H136.9c-11 0.1-19.9-8.9-19.9-19.9zM956.8 716.8c-4.7-121.2-106.8-216-227.5-211.3-58.5 2.3-112.6 27.3-152.4 70.4-39.7 43.1-60.3 99.2-58.1 157.9s27.2 113 70.1 152.9c40.8 37.9 93.3 58.6 148.7 58.5 2.9 0 5.8-0.1 8.7-0.2 120.8-4.6 215.2-107 210.5-228.2zM744.4 895.1c-93.2 3.7-172-69.6-175.6-163.3-1.8-45.4 14.2-88.7 44.9-122.1 30.7-33.3 72.4-52.6 117.5-54.3 93.2-3.6 172 69.6 175.6 163.3s-69.2 172.8-162.4 176.4zM567.2 284H273.8c-13.8 0-25 11.2-25 25s11.2 25 25 25h293.4c13.8 0 25-11.2 25-25s-11.2-25-25-25zM759.1 607.8h-50v111.3c0 23.5 19 42.5 42.4 42.5h79.7v-50h-72.1V607.8z" /></svg>