<?xml version="1.0" standalone="no"?><!DOCTYPE svg PUBLIC "-//W3C//DTD SVG 1.1//EN" "http://www.w3.org/Graphics/SVG/1.1/DTD/svg11.dtd"><svg class="icon" width="200px" height="200.00px" viewBox="0 0 1024 1024" version="1.1" xmlns="http://www.w3.org/2000/svg"><path fill="#2c2c2c" d="M512.3 221.5c-246.9 0-447 161.3-447 291.8C65.3 639 265.4 805 512.3 805s447-166 447-291.8c0-130.4-200.1-291.7-447-291.7z m372.2 363.4c-19.7 28.9-48.6 57.3-83.8 82.2-37.9 26.8-82.6 49.1-129.3 64.4-51.7 16.9-105.2 25.5-159 25.5-53.9 0-107.4-8.6-159-25.5-46.7-15.3-91.4-37.6-129.3-64.4-35.2-24.9-64.2-53.3-83.8-82.2-17.5-25.8-26.8-50.5-26.8-71.6 0-22.2 9.3-47.7 26.9-73.7 19.5-28.9 48.4-57.1 83.6-81.7 37.7-26.4 82.4-48.3 129.2-63.3 51.6-16.6 105.2-24.9 159.3-24.9 54.1 0 107.7 8.4 159.3 24.9 46.8 15 91.5 36.9 129.2 63.3 35.2 24.6 64.1 52.9 83.6 81.7 17.6 26 26.9 51.5 26.9 73.7-0.2 21-9.5 45.8-27 71.6zM513 395.9c-72.9 0-132 52.4-132 117s59.1 117 132 117 132-52.4 132-117-59.1-117-132-117z m61.5 163.9c-16.1 14.3-38 22.2-61.5 22.2s-45.4-7.9-61.5-22.2C437 546.9 429 530.3 429 513c0-17.3 8-34 22.5-46.8 16.1-14.3 38-22.2 61.5-22.2s45.4 7.9 61.5 22.2C589 479 597 495.6 597 513c0 17.3-8 33.9-22.5 46.8z" /></svg>