<?xml version="1.0" standalone="no"?><!DOCTYPE svg PUBLIC "-//W3C//DTD SVG 1.1//EN" "http://www.w3.org/Graphics/SVG/1.1/DTD/svg11.dtd"><svg class="icon" width="200px" height="200.00px" viewBox="0 0 1024 1024" version="1.1" xmlns="http://www.w3.org/2000/svg"><path fill="#2c2c2c" d="M832 106.666667h-640c-46.933333 0-85.333333 38.4-85.333333 85.333333v640c0 46.933333 38.4 85.333333 85.333333 85.333333h640c46.933333 0 85.333333-38.4 85.333333-85.333333v-640c0-46.933333-38.4-85.333333-85.333333-85.333333z m-170.666667 580.266666c-4.266667 8.533333-8.533333 17.066667-17.066666 17.066667s-17.066667-4.266667-21.333334-12.8L512 456.533333l-106.666667 234.666667c-4.266667 8.533333-12.8 12.8-21.333333 12.8s-17.066667-8.533333-17.066667-17.066667l-85.333333-341.333333 42.666667-8.533333 72.533333 281.6 102.4-221.866667c8.533333-17.066667 29.866667-17.066667 38.4 0l102.4 221.866667 72.533333-281.6 42.666667 8.533333-93.866667 341.333333z" /></svg>