<?xml version="1.0" standalone="no"?><!DOCTYPE svg PUBLIC "-//W3C//DTD SVG 1.1//EN" "http://www.w3.org/Graphics/SVG/1.1/DTD/svg11.dtd"><svg class="icon" width="200px" height="200.00px" viewBox="0 0 1024 1024" version="1.1" xmlns="http://www.w3.org/2000/svg"><path fill="#2c2c2c" d="M802.133333 256h-277.333333L422.4 136.533333c-4.266667-4.266667-12.8-8.533333-17.066667-8.533333H128c-34.133333 0-64 29.866667-64 64v682.666667c0 12.8 8.533333 21.333333 17.066667 21.333333H85.333333c8.533333 0 17.066667-8.533333 21.333334-17.066667L209.066667 469.333333h635.733333c12.8 0 21.333333-8.533333 21.333333-21.333333v-128c-4.266667-34.133333-29.866667-64-64-64z m17.066667 170.666667H192c-8.533333 0-17.066667 8.533333-21.333333 17.066666l-64 260.266667v-512c0-12.8 8.533333-21.333333 21.333333-21.333333h268.8l102.4 119.466666c0 4.266667 8.533333 8.533333 12.8 8.533334h290.133333c12.8 0 21.333333 8.533333 21.333334 21.333333V426.666667zM955.733333 435.2c-4.266667-4.266667-12.8-8.533333-17.066666-8.533333H187.733333c-8.533333 0-17.066667 8.533333-21.333333 17.066666l-102.4 426.666667c0 4.266667 0 12.8 4.266667 17.066667 4.266667 4.266667 8.533333 8.533333 17.066666 8.533333h768c8.533333 0 17.066667-8.533333 21.333334-17.066667l85.333333-426.666666c0-4.266667 0-12.8-4.266667-17.066667z" /></svg>