<?xml version="1.0" standalone="no"?><!DOCTYPE svg PUBLIC "-//W3C//DTD SVG 1.1//EN" "http://www.w3.org/Graphics/SVG/1.1/DTD/svg11.dtd"><svg class="icon" width="200px" height="200.00px" viewBox="0 0 1024 1024" version="1.1" xmlns="http://www.w3.org/2000/svg"><path fill="#2c2c2c" d="M874.666667 234.666667h-157.866667l-59.733333-115.2c-4.266667-8.533333-12.8-12.8-17.066667-12.8H384c-8.533333 0-17.066667 4.266667-17.066667 12.8L307.2 234.666667H149.333333c-46.933333 0-85.333333 38.4-85.333333 85.333333v512c0 46.933333 38.4 85.333333 85.333333 85.333333h725.333334c46.933333 0 85.333333-38.4 85.333333-85.333333v-512c0-46.933333-38.4-85.333333-85.333333-85.333333zM512 768c-106.666667 0-192-85.333333-192-192S405.333333 384 512 384s192 85.333333 192 192-85.333333 192-192 192z" /></svg>