<?xml version="1.0" standalone="no"?><!DOCTYPE svg PUBLIC "-//W3C//DTD SVG 1.1//EN" "http://www.w3.org/Graphics/SVG/1.1/DTD/svg11.dtd"><svg class="icon" width="200px" height="200.00px" viewBox="0 0 1024 1024" version="1.1" xmlns="http://www.w3.org/2000/svg"><path fill="#2c2c2c" d="M960 409.6c-4.266667-8.533333-8.533333-12.8-17.066667-12.8l-281.6-42.666667-128-256c-4.266667-8.533333-12.8-12.8-21.333333-12.8s-17.066667 4.266667-17.066667 12.8l-123.733333 256-285.866667 42.666667c-8.533333 0-12.8 8.533333-17.066666 12.8-4.266667 8.533333 0 17.066667 4.266666 21.333333l204.8 200.533334-51.2 281.6c0 8.533333 0 17.066667 8.533334 21.333333 8.533333 4.266667 17.066667 4.266667 21.333333 0l251.733333-136.533333 251.733334 136.533333c4.266667 0 8.533333 4.266667 8.533333 4.266667 4.266667 0 8.533333 0 12.8-4.266667 8.533333-4.266667 8.533333-12.8 8.533333-21.333333l-46.933333-281.6 204.8-200.533334c12.8-4.266667 12.8-12.8 12.8-21.333333z" /></svg>