<?xml version="1.0" standalone="no"?><!DOCTYPE svg PUBLIC "-//W3C//DTD SVG 1.1//EN" "http://www.w3.org/Graphics/SVG/1.1/DTD/svg11.dtd"><svg class="icon" width="200px" height="200.00px" viewBox="0 0 1024 1024" version="1.1" xmlns="http://www.w3.org/2000/svg"><path fill="#2c2c2c" d="M874.666667 149.333333h-725.333334C115.2 149.333333 85.333333 179.2 85.333333 213.333333v597.333334c0 34.133333 29.866667 64 64 64h725.333334c34.133333 0 64-29.866667 64-64V213.333333c0-34.133333-29.866667-64-64-64z m-725.333334 42.666667h725.333334c12.8 0 21.333333 8.533333 21.333333 21.333333v469.333334l-328.533333-251.733334c-8.533333-8.533333-21.333333-4.266667-29.866667 4.266667l-115.2 132.266667-89.6-72.533334c-8.533333-8.533333-21.333333-4.266667-29.866667 0L128 674.133333V213.333333c0-12.8 8.533333-21.333333 21.333333-21.333333zM307.2 405.333333c29.866667 0 51.2-25.6 51.2-51.2S337.066667 298.666667 307.2 298.666667 256 324.266667 256 354.133333s25.6 51.2 51.2 51.2z m0-64c4.266667 0 8.533333 4.266667 8.533333 8.533334 0 12.8-21.333333 12.8-21.333333 0 4.266667-4.266667 8.533333-8.533333 12.8-8.533334z" /></svg>