<?xml version="1.0" standalone="no"?><!DOCTYPE svg PUBLIC "-//W3C//DTD SVG 1.1//EN" "http://www.w3.org/Graphics/SVG/1.1/DTD/svg11.dtd"><svg class="icon" width="200px" height="200.00px" viewBox="0 0 1024 1024" version="1.1" xmlns="http://www.w3.org/2000/svg"><path fill="#2c2c2c" d="M827.733333 196.266667c-85.333333-85.333333-196.266667-132.266667-315.733333-132.266667-119.466667 0-230.4 46.933333-315.733333 132.266667S64 392.533333 64 512c0 119.466667 46.933333 230.4 132.266667 315.733333s196.266667 132.266667 315.733333 132.266667c119.466667 0 230.4-46.933333 315.733333-132.266667s132.266667-196.266667 132.266667-315.733333c0-119.466667-46.933333-230.4-132.266667-315.733333zM490.666667 256h42.666666v341.333333h-42.666666V256z m21.333333 533.333333c-29.866667 0-51.2-25.6-51.2-51.2S482.133333 682.666667 512 682.666667s51.2 25.6 51.2 51.2-21.333333 55.466667-51.2 55.466666z" /></svg>